{
.appVersion = "3517";
.formatVersion = 3;
DisplayStrings = (
A,
"This font Was Created from that single letter \"A\". What do you think?
1234567890 åäößæçðõš

"
);
date = "2026-03-12 19:09:53 +0000";
familyName = "Diamond Sans";
fontMaster = (
{
id = m01;
metricValues = (
{
over = 16;
pos = 800;
},
{
over = 16;
pos = 700;
},
{
over = 16;
pos = 500;
},
{
over = -16;
},
{
over = -16;
pos = -200;
},
{
}
);
name = Regular;
},
{
customParameters = (
{
name = "Master Icon Glyph Name";
value = n;
}
);
id = "442442E3-15B6-417A-B1AA-7726B8899A2D";
metricValues = (
{
over = 16;
pos = 800;
},
{
over = 16;
pos = 700;
},
{
over = 16;
pos = 500;
},
{
over = -16;
},
{
over = -16;
pos = -200;
},
{
}
);
name = "AI Generated (2026-03-12 19:02)";
}
);
glyphs = (
{
glyphname = A;
lastChange = "2026-03-12 19:02:09 +0000";
layers = (
{
layerId = m01;
shapes = (
{
closed = 1;
nodes = (
(265,700,l),
(465,0,l),
(742,0,l),
(542,700,l)
);
},
{
closed = 1;
nodes = (
(220,700,l),
(20,0,l),
(104,0,l),
(304,700,l)
);
},
{
closed = 1;
nodes = (
(562,346,l),
(541,230,l),
(450,345,l),
(471,461,l)
);
},
{
closed = 1;
nodes = (
(118,139,l),
(485,139,l),
(485,216,l),
(118,216,l)
);
}
);
width = 762;
},
{
anchors = (
{
name = bottom;
pos = (281,0);
},
{
name = top;
pos = (281,700);
}
);
layerId = "442442E3-15B6-417A-B1AA-7726B8899A2D";
shapes = (
{
closed = 1;
nodes = (
(157,687,l),
(145,633,o),
(109,475,o),
(76,336,cs),
(43,196,o),
(13,66,o),
(9,46,c),
(3,9,l),
(60,9,l),
(118,9,l),
(124,46,l),
(127,66,o),
(133,97,o),
(138,115,c),
(147,147,l),
(295,145,l),
(443,142,l),
(465,75,l),
(485,9,l),
(587,9,l),
(699,9,o),
(698,8,o),
(679,69,c),
(667,112,l),
(642,211,l),
(603,370,l),
(559,555,l),
(500,810,o),
(526,783,o),
(331,783,c),
(176,783,l)
);
},
{
closed = 1;
nodes = (
(344,470,c),
(401,241,l),
(282,241,l),
(146,241,o),
(156,233,o),
(175,327,cs),
(246,654,o),
(264,720,o),
(278,707,cs),
(282,702,o),
(312,596,o)
);
},
{
closed = 1;
nodes = (
(460,545,cs),
(469,522,o),
(487,480,o),
(501,452,cs),
(514,424,o),
(526,393,o),
(526,383,cs),
(527,355,o),
(506,206,o),
(501,211,cs),
(465,246,o),
(426,399,o),
(428,493,cs),
(431,602,o),
(436,609,o)
);
}
);
width = 714;
}
);
unicode = 65;
},
{
glyphname = AE;
lastChange = "2026-03-12 19:03:50 +0000";
layers = (
{
layerId = "442442E3-15B6-417A-B1AA-7726B8899A2D";
shapes = (
{
closed = 1;
nodes = (
(157,687,l),
(145,633,o),
(109,475,o),
(76,336,cs),
(43,196,o),
(13,66,o),
(9,46,c),
(3,9,l),
(60,9,l),
(118,9,l),
(124,46,l),
(127,66,o),
(133,97,o),
(138,115,c),
(147,147,l),
(295,145,l),
(443,142,l),
(465,75,l),
(485,9,l),
(587,9,l),
(699,9,o),
(698,8,o),
(679,69,c),
(667,112,l),
(642,211,l),
(603,370,l),
(559,555,l),
(500,810,o),
(526,783,o),
(331,783,c),
(176,783,l)
);
},
{
closed = 1;
nodes = (
(344,470,c),
(401,241,l),
(282,241,l),
(146,241,o),
(156,233,o),
(175,327,cs),
(246,654,o),
(264,720,o),
(278,707,cs),
(282,702,o),
(312,596,o)
);
},
{
closed = 1;
nodes = (
(460,545,cs),
(469,522,o),
(487,480,o),
(501,452,cs),
(514,424,o),
(526,393,o),
(526,383,cs),
(527,355,o),
(506,206,o),
(501,211,cs),
(465,246,o),
(426,399,o),
(428,493,cs),
(431,602,o),
(436,609,o)
);
},
{
closed = 1;
nodes = (
(546,773,cs),
(544,767,o),
(543,593,o),
(544,387,c),
(546,13,l),
(796,13,l),
(1045,13,l),
(1048,76,l),
(1050,138,l),
(903,138,l),
(756,138,l),
(759,239,l),
(761,340,l),
(841,343,l),
(920,345,l),
(920,400,l),
(920,456,l),
(839,456,l),
(757,456,l),
(757,555,l),
(757,654,l),
(903,654,l),
(1050,654,l),
(1048,717,l),
(1045,779,l),
(797,781,l),
(604,783,o),
(549,781,o)
);
},
{
closed = 1;
nodes = (
(674,494,cs),
(695,415,o),
(696,404,o),
(685,374,cs),
(679,356,o),
(668,313,o),
(662,278,cs),
(649,207,o),
(641,204,o),
(634,270,cs),
(630,295,o),
(622,333,o),
(614,354,cs),
(601,390,o),
(602,398,o),
(620,492,cs),
(643,609,o),
(644,609,o)
);
}
);
width = 1084;
},
{
layerId = m01;
width = 600;
}
);
unicode = 198;
},
{
glyphname = B;
lastChange = "2026-03-12 19:02:09 +0000";
layers = (
{
layerId = m01;
width = 600;
},
{
anchors = (
{
name = bottom;
pos = (309,0);
},
{
name = top;
pos = (309,700);
}
);
layerId = "442442E3-15B6-417A-B1AA-7726B8899A2D";
shapes = (
{
closed = 1;
nodes = (
(23,778,cs),
(20,774,o),
(17,600,o),
(17,390,c),
(17,9,l),
(219,9,l),
(510,9,o),
(552,24,o),
(576,142,cs),
(601,261,o),
(566,344,o),
(477,378,c),
(437,393,l),
(477,413,l),
(570,458,o),
(574,708,o),
(482,762,cs),
(451,780,o),
(40,794,o)
);
},
{
closed = 1;
nodes = (
(376,625,cs),
(452,559,o),
(393,430,o),
(288,430,c),
(232,430,l),
(232,538,l),
(232,645,l),
(292,645,l),
(342,645,o),
(355,642,o)
);
},
{
closed = 1;
nodes = (
(159,357,cs),
(152,334,o),
(141,289,o),
(134,258,c),
(123,202,l),
(117,237,l),
(106,301,o),
(92,357,o),
(84,372,cs),
(80,382,o),
(83,412,o),
(94,458,c),
(116,564,l),
(121,596,o),
(123,594,o),
(147,499,cs),
(172,403,o),
(173,399,o)
);
},
{
closed = 1;
nodes = (
(388,336,cs),
(489,282,o),
(434,134,o),
(311,134,c),
(237,134,l),
(234,227,l),
(233,280,o),
(234,327,o),
(236,333,cs),
(242,347,o),
(362,349,o)
);
}
);
width = 619;
}
);
unicode = 66;
},
{
glyphname = C;
lastChange = "2026-03-12 19:02:09 +0000";
layers = (
{
layerId = m01;
width = 600;
},
{
anchors = (
{
name = bottom;
pos = (292,0);
},
{
name = top;
pos = (298,700);
}
);
layerId = "442442E3-15B6-417A-B1AA-7726B8899A2D";
shapes = (
{
closed = 1;
nodes = (
(95,764,cs),
(23,728,o),
(22,721,o),
(19,427,cs),
(15,1,o),
(9,9,o),
(343,9,c),
(533,9,l),
(533,73,l),
(533,138,l),
(399,138,l),
(214,138,o),
(232,110,o),
(232,392,cs),
(232,666,o),
(228,654,o),
(323,654,cs),
(393,654,o),
(395,651,o),
(397,520,c),
(400,409,l),
(473,409,l),
(546,409,l),
(549,538,l),
(551,673,o),
(545,719,o),
(515,745,cs),
(469,787,o),
(167,800,o)
);
},
{
closed = 1;
nodes = (
(156,340,l),
(131,245,l),
(123,211,l),
(116,245,l),
(113,264,o),
(102,307,o),
(94,339,cs),
(78,397,o),
(78,399,o),
(95,470,cs),
(104,510,o),
(112,552,o),
(112,563,cs),
(112,610,o),
(125,587,o),
(148,497,c),
(174,400,l)
);
}
);
width = 585;
}
);
unicode = 67;
},
{
glyphname = D;
lastChange = "2026-03-12 19:02:09 +0000";
layers = (
{
layerId = m01;
width = 600;
},
{
anchors = (
{
name = bottom;
pos = (322,0);
},
{
name = top;
pos = (322,700);
}
);
layerId = "442442E3-15B6-417A-B1AA-7726B8899A2D";
shapes = (
{
closed = 1;
nodes = (
(22,773,cs),
(20,767,o),
(19,593,o),
(20,387,c),
(22,13,l),
(249,11,l),
(619,7,o),
(611,-3,o),
(611,413,cs),
(611,793,o),
(620,783,o),
(251,783,cs),
(78,783,o),
(24,781,o)
);
},
{
closed = 1;
nodes = (
(404,392,l),
(404,138,l),
(318,138,l),
(232,138,l),
(232,392,l),
(232,645,l),
(318,645,l),
(404,645,l)
);
},
{
closed = 1;
nodes = (
(155,480,c),
(175,389,l),
(155,317,l),
(145,277,o),
(132,236,o),
(128,224,c),
(122,202,l),
(121,227,l),
(120,239,o),
(112,283,o),
(102,324,c),
(83,398,l),
(102,478,l),
(112,522,o),
(120,567,o),
(120,578,cs),
(121,615,o),
(135,576,o)
);
},
{
closed = 1;
nodes = (
(521,536,c),
(538,461,l),
(541,448,o),
(547,428,o),
(551,417,cs),
(556,404,o),
(553,384,o),
(543,356,cs),
(533,333,o),
(521,291,o),
(515,263,cs),
(509,234,o),
(503,219,o),
(502,228,c),
(480,318,l),
(464,387,o),
(464,393,o),
(476,455,cs),
(483,491,o),
(492,537,o),
(495,558,cs),
(502,603,o),
(505,601,o)
);
}
);
width = 645;
}
);
unicode = 68;
},
{
glyphname = E;
lastChange = "2026-03-12 19:02:09 +0000";
layers = (
{
layerId = m01;
width = 600;
},
{
anchors = (
{
name = bottom;
pos = (298,0);
},
{
name = top;
pos = (298,700);
}
);
layerId = "442442E3-15B6-417A-B1AA-7726B8899A2D";
shapes = (
{
closed = 1;
nodes = (
(30,773,cs),
(28,767,o),
(27,593,o),
(28,387,c),
(30,13,l),
(280,13,l),
(529,13,l),
(532,76,l),
(534,138,l),
(387,138,l),
(240,138,l),
(243,239,l),
(245,340,l),
(325,343,l),
(404,345,l),
(404,400,l),
(404,456,l),
(323,456,l),
(241,456,l),
(241,555,l),
(241,654,l),
(387,654,l),
(534,654,l),
(532,717,l),
(529,779,l),
(281,781,l),
(88,783,o),
(33,781,o)
);
},
{
closed = 1;
nodes = (
(158,494,cs),
(179,415,o),
(180,404,o),
(169,374,cs),
(163,356,o),
(152,313,o),
(146,278,cs),
(133,207,o),
(125,204,o),
(118,270,cs),
(114,295,o),
(106,333,o),
(98,354,cs),
(85,390,o),
(86,398,o),
(104,492,cs),
(127,609,o),
(128,609,o)
);
}
);
width = 568;
}
);
unicode = 69;
},
{
glyphname = F;
lastChange = "2026-03-12 19:02:09 +0000";
layers = (
{
layerId = m01;
width = 600;
},
{
anchors = (
{
name = bottom;
pos = (258,0);
},
{
name = top;
pos = (258,700);
}
);
layerId = "442442E3-15B6-417A-B1AA-7726B8899A2D";
shapes = (
{
closed = 1;
nodes = (
(22,773,cs),
(19,767,o),
(18,593,o),
(19,387,c),
(22,13,l),
(129,13,l),
(237,13,l),
(239,171,l),
(241,327,l),
(330,327,l),
(420,327,l),
(415,368,l),
(409,433,o),
(413,430,o),
(323,430,c),
(241,430,l),
(241,538,l),
(241,645,l),
(364,647,l),
(486,650,l),
(486,714,l),
(486,779,l),
(255,781,l),
(76,783,o),
(24,781,o)
);
},
{
closed = 1;
nodes = (
(154,501,cs),
(165,450,o),
(174,401,o),
(174,392,cs),
(172,362,o),
(162,314,o),
(155,306,cs),
(151,301,o),
(145,279,o),
(142,256,cs),
(135,211,o),
(120,192,o),
(120,228,cs),
(120,241,o),
(113,282,o),
(102,321,c),
(84,392,l),
(104,493,l),
(128,616,o),
(128,616,o)
);
}
);
width = 516;
}
);
unicode = 70;
},
{
glyphname = G;
lastChange = "2026-03-12 19:02:09 +0000";
layers = (
{
layerId = m01;
width = 600;
},
{
anchors = (
{
name = bottom;
pos = (305,0);
},
{
name = top;
pos = (305,700);
}
);
layerId = "442442E3-15B6-417A-B1AA-7726B8899A2D";
shapes = (
{
closed = 1;
nodes = (
(112,769,cs),
(23,730,o),
(13,692,o),
(13,387,cs),
(13,14,o),
(21,5,o),
(336,11,cs),
(575,14,o),
(576,16,o),
(576,271,c),
(576,431,l),
(446,429,l),
(314,426,l),
(311,377,l),
(309,328,l),
(372,325,l),
(434,323,l),
(437,251,l),
(440,154,o),
(425,138,o),
(334,138,cs),
(226,138,o),
(232,122,o),
(232,401,c),
(232,637,l),
(255,645,l),
(335,676,o),
(403,653,o),
(405,591,c),
(408,551,l),
(496,551,l),
(585,551,l),
(580,626,l),
(571,773,o),
(562,778,o),
(324,781,cs),
(175,783,o),
(137,781,o)
);
},
{
closed = 1;
nodes = (
(129,579,cs),
(129,571,o),
(138,527,o),
(151,481,c),
(171,399,l),
(150,332,l),
(138,296,o),
(129,257,o),
(129,245,cs),
(129,207,o),
(115,223,o),
(106,274,cs),
(101,301,o),
(91,341,o),
(85,363,cs),
(77,398,o),
(77,412,o),
(94,477,cs),
(103,517,o),
(112,560,o),
(112,572,cs),
(112,584,o),
(116,594,o),
(120,594,cs),
(126,594,o),
(129,587,o)
);
}
);
width = 611;
}
);
unicode = 71;
},
{
glyphname = H;
lastChange = "2026-03-12 19:02:09 +0000";
layers = (
{
layerId = m01;
width = 600;
},
{
anchors = (
{
name = bottom;
pos = (361,0);
},
{
name = top;
pos = (361,700);
}
);
layerId = "442442E3-15B6-417A-B1AA-7726B8899A2D";
shapes = (
{
closed = 1;
nodes = (
(23,777,cs),
(20,774,o),
(17,600,o),
(17,390,c),
(17,9,l),
(129,9,l),
(241,9,l),
(241,168,l),
(241,327,l),
(353,327,l),
(465,327,l),
(465,168,l),
(465,8,l),
(575,11,l),
(684,13,l),
(684,396,l),
(684,779,l),
(594,781,l),
(451,786,o),
(465,805,o),
(465,598,c),
(465,422,l),
(353,422,l),
(241,422,l),
(241,602,l),
(241,783,l),
(135,783,l),
(77,783,o),
(26,781,o)
);
},
{
closed = 1;
nodes = (
(161,474,l),
(177,406,o),
(180,381,o),
(173,367,cs),
(159,339,o),
(138,258,o),
(138,233,cs),
(138,215,o),
(136,214,o),
(129,224,cs),
(125,231,o),
(120,246,o),
(120,257,cs),
(120,268,o),
(113,304,o),
(102,337,c),
(84,396,l),
(103,484,l),
(126,590,o),
(130,605,o),
(135,581,c)
);
},
{
closed = 1;
nodes = (
(585,578,cs),
(585,569,o),
(594,525,o),
(606,480,c),
(626,399,l),
(610,348,l),
(600,319,o),
(590,279,o),
(588,257,cs),
(581,202,o),
(571,204,o),
(564,260,cs),
(561,284,o),
(556,309,o),
(552,313,c),
(545,327,l),
(538,363,l),
(531,398,o),
(565,594,o),
(578,594,cs),
(582,594,o),
(585,587,o)
);
}
);
width = 723;
}
);
unicode = 72;
},
{
glyphname = I;
lastChange = "2026-03-12 19:02:09 +0000";
layers = (
{
layerId = m01;
width = 600;
},
{
anchors = (
{
name = bottom;
pos = (215,0);
},
{
name = top;
pos = (215,700);
}
);
layerId = "442442E3-15B6-417A-B1AA-7726B8899A2D";
shapes = (
{
closed = 1;
nodes = (
(23,778,cs),
(20,774,o),
(17,744,o),
(17,708,c),
(17,645,l),
(56,645,l),
(95,645,l),
(95,396,l),
(95,147,l),
(56,147,l),
(16,147,l),
(19,80,l),
(22,13,l),
(209,11,l),
(396,9,l),
(396,79,l),
(396,151,l),
(353,148,l),
(310,145,l),
(310,395,l),
(310,645,l),
(353,645,l),
(397,645,l),
(394,713,l),
(391,779,l),
(210,781,l),
(111,782,o),
(27,781,o)
);
},
{
closed = 1;
nodes = (
(244,408,l),
(246,403,o),
(238,367,o),
(227,328,cs),
(216,288,o),
(206,246,o),
(206,234,cs),
(206,202,o),
(198,216,o),
(185,273,cs),
(179,301,o),
(169,340,o),
(163,361,cs),
(154,399,o),
(158,430,o),
(192,564,c),
(200,598,l),
(220,508,l)
);
}
);
width = 430;
}
);
unicode = 73;
},
{
glyphname = J;
lastChange = "2026-03-12 19:02:09 +0000";
layers = (
{
layerId = m01;
width = 600;
},
{
anchors = (
{
name = bottom;
pos = (288,0);
},
{
name = top;
pos = (288,700);
}
);
layerId = "442442E3-15B6-417A-B1AA-7726B8899A2D";
shapes = (
{
closed = 1;
nodes = (
(327,471,l),
(327,112,o),
(330,129,o),
(251,129,cs),
(183,129,o),
(172,149,o),
(172,268,c),
(172,362,l),
(100,362,l),
(27,362,l),
(21,313,l),
(13,253,o),
(28,124,o),
(46,90,cs),
(83,18,o),
(120,6,o),
(300,11,cs),
(539,16,o),
(537,11,o),
(540,459,c),
(543,783,l),
(435,783,l),
(327,783,l)
);
},
{
closed = 1;
nodes = (
(461,490,cs),
(482,405,o),
(483,399,o),
(470,362,cs),
(462,340,o),
(451,298,o),
(445,267,c),
(434,211,l),
(427,254,l),
(423,278,o),
(415,321,o),
(407,350,cs),
(395,399,o),
(395,411,o),
(409,479,cs),
(434,611,o),
(432,611,o)
);
}
);
width = 576;
}
);
unicode = 74;
},
{
glyphname = K;
lastChange = "2026-03-12 19:02:09 +0000";
layers = (
{
layerId = m01;
width = 600;
},
{
anchors = (
{
name = bottom;
pos = (357,0);
},
{
name = top;
pos = (357,700);
}
);
layerId = "442442E3-15B6-417A-B1AA-7726B8899A2D";
shapes = (
{
closed = 1;
nodes = (
(17,396,l),
(17,9,l),
(129,9,l),
(241,9,l),
(241,168,l),
(241,327,l),
(327,327,l),
(406,327,o),
(413,325,o),
(422,308,cs),
(435,284,o),
(428,202,o),
(409,165,cs),
(395,138,o),
(395,138,o),
(432,75,c),
(469,13,l),
(563,11,l),
(681,8,o),
(678,-1,o),
(627,147,cs),
(540,399,o),
(525,430,o),
(481,430,cs),
(464,430,o),
(458,451,o),
(473,461,cs),
(483,467,o),
(659,727,o),
(679,764,c),
(689,783,l),
(575,783,l),
(460,783,l),
(431,703,l),
(391,593,o),
(328,468,o),
(297,436,cs),
(283,420,o),
(264,399,o),
(256,387,c),
(242,366,l),
(241,405,l),
(238,611,l),
(237,779,l),
(127,781,l),
(17,784,l)
);
},
{
closed = 1;
nodes = (
(142,536,cs),
(145,513,o),
(151,491,o),
(155,486,cs),
(168,469,o),
(173,398,o),
(163,361,cs),
(157,340,o),
(148,301,o),
(142,273,cs),
(129,217,o),
(120,202,o),
(120,233,cs),
(120,245,o),
(112,288,o),
(101,329,c),
(81,403,l),
(102,490,l),
(125,587,o),
(132,596,o)
);
},
{
closed = 1;
nodes = (
(500,144,cs),
(485,129,o),
(479,143,o),
(491,165,cs),
(502,184,o),
(503,184,o),
(506,169,cs),
(508,160,o),
(505,149,o)
);
}
);
width = 714;
}
);
unicode = 75;
},
{
glyphname = L;
lastChange = "2026-03-12 19:02:09 +0000";
layers = (
{
layerId = m01;
width = 600;
},
{
anchors = (
{
name = bottom;
pos = (271,0);
},
{
name = top;
pos = (271,700);
}
);
layerId = "442442E3-15B6-417A-B1AA-7726B8899A2D";
shapes = (
{
closed = 1;
nodes = (
(25,777,cs),
(24,771,o),
(24,486,o),
(26,128,c),
(26,9,l),
(267,9,l),
(508,9,l),
(508,82,l),
(508,155,l),
(374,155,l),
(241,155,l),
(241,469,l),
(241,783,l),
(133,783,l),
(74,783,o),
(26,781,o)
);
},
{
closed = 1;
nodes = (
(158,491,c),
(181,400,l),
(159,331,l),
(147,294,o),
(138,253,o),
(138,242,cs),
(138,207,o),
(130,226,o),
(107,317,c),
(85,405,l),
(103,485,l),
(133,612,o),
(129,611,o)
);
}
);
width = 542;
}
);
unicode = 76;
},
{
glyphname = M;
lastChange = "2026-03-12 19:02:09 +0000";
layers = (
{
layerId = m01;
width = 600;
},
{
anchors = (
{
name = bottom;
pos = (421,0);
},
{
name = top;
pos = (421,700);
}
);
layerId = "442442E3-15B6-417A-B1AA-7726B8899A2D";
shapes = (
{
closed = 1;
nodes = (
(23,777,cs),
(20,774,o),
(17,600,o),
(17,390,c),
(17,9,l),
(125,9,l),
(232,9,l),
(232,288,l),
(232,539,o),
(237,602,o),
(252,553,c),
(280,473,l),
(340,301,l),
(397,131,o),
(446,128,o),
(490,290,cs),
(514,378,o),
(552,495,o),
(572,545,cs),
(589,586,o),
(594,537,o),
(595,287,c),
(598,13,l),
(701,13,l),
(804,13,l),
(804,396,l),
(804,779,l),
(676,779,l),
(548,779,l),
(536,740,l),
(502,620,l),
(465,476,o),
(420,344,o),
(410,347,cs),
(401,350,o),
(395,368,o),
(339,564,cs),
(318,639,o),
(294,719,o),
(287,743,c),
(274,783,l),
(151,783,l),
(83,783,o),
(26,781,o)
);
},
{
closed = 1;
nodes = (
(150,490,c),
(172,399,l),
(148,305,l),
(123,211,l),
(113,258,l),
(93,351,l),
(83,397,o),
(88,438,o),
(114,549,cs),
(125,596,o),
(123,598,o)
);
},
{
closed = 1;
nodes = (
(732,465,cs),
(745,411,o),
(747,387,o),
(740,370,cs),
(735,358,o),
(723,319,o),
(715,284,cs),
(700,227,o),
(698,222,o),
(693,245,c),
(671,337,l),
(652,408,o),
(652,400,o),
(690,547,cs),
(701,589,o),
(705,580,o)
);
}
);
width = 843;
}
);
unicode = 77;
},
{
glyphname = N;
lastChange = "2026-03-12 19:02:09 +0000";
layers = (
{
layerId = m01;
width = 600;
},
{
anchors = (
{
name = bottom;
pos = (305,0);
},
{
name = top;
pos = (305,700);
}
);
layerId = "442442E3-15B6-417A-B1AA-7726B8899A2D";
shapes = (
{
closed = 1;
nodes = (
(26,396,l),
(26,9,l),
(133,9,l),
(241,9,l),
(241,284,l),
(241,556,o),
(245,595,o),
(268,528,cs),
(273,510,o),
(305,430,o),
(337,349,c),
(436,105,l),
(475,9,l),
(590,9,l),
(705,9,l),
(705,396,l),
(705,783,l),
(598,783,l),
(490,783,l),
(489,510,l),
(486,237,l),
(461,288,l),
(436,341,o),
(330,595,o),
(282,717,c),
(255,783,l),
(141,783,l),
(26,783,l)
);
},
{
closed = 1;
nodes = (
(154,485,c),
(175,394,l),
(159,337,l),
(151,306,o),
(142,267,o),
(139,252,cs),
(134,213,o),
(124,217,o),
(117,261,c),
(98,352,l),
(85,402,o),
(85,411,o),
(98,460,c),
(117,545,l),
(126,594,o),
(132,584,o)
);
},
{
closed = 1;
nodes = (
(616,527,cs),
(618,504,o),
(627,469,o),
(634,448,cs),
(646,411,o),
(646,405,o),
(623,313,c),
(599,218,l),
(575,312,l),
(551,405,l),
(574,491,l),
(598,583,o),
(606,590,o)
);
}
);
width = 748;
}
);
unicode = 78;
},
{
glyphname = O;
lastChange = "2026-03-12 19:02:09 +0000";
layers = (
{
layerId = m01;
width = 600;
},
{
anchors = (
{
name = bottom;
pos = (271,0);
},
{
name = top;
pos = (271,700);
}
);
layerId = "442442E3-15B6-417A-B1AA-7726B8899A2D";
shapes = (
{
closed = 1;
nodes = (
(116,770,cs),
(29,740,o),
(22,709,o),
(22,405,cs),
(22,27,o),
(34,9,o),
(298,9,cs),
(581,9,o),
(601,44,o),
(585,512,cs),
(576,774,o),
(567,783,o),
(310,782,cs),
(195,782,o),
(141,779,o)
);
},
{
closed = 1;
nodes = (
(378,646,cs),
(391,624,o),
(391,177,o),
(378,154,cs),
(367,134,o),
(253,129,o),
(234,148,cs),
(220,162,o),
(219,621,o),
(232,646,cs),
(240,660,o),
(251,663,o),
(305,663,cs),
(360,663,o),
(371,660,o)
);
},
{
closed = 1;
nodes = (
(150,478,cs),
(164,418,o),
(168,387,o),
(163,375,cs),
(158,365,o),
(147,325,o),
(138,284,cs),
(123,212,o),
(123,212,o),
(116,245,cs),
(113,264,o),
(102,307,o),
(92,339,cs),
(77,392,o),
(77,404,o),
(85,442,cs),
(106,527,o),
(123,581,o),
(126,572,cs),
(128,567,o),
(138,525,o)
);
},
{
closed = 1;
nodes = (
(513,486,c),
(534,402,l),
(515,324,l),
(493,227,o),
(483,202,o),
(483,233,cs),
(482,245,o),
(473,287,o),
(462,327,cs),
(441,405,o),
(441,408,o),
(475,546,cs),
(485,589,o),
(488,584,o)
);
}
);
width = 619;
}
);
unicode = 79;
},
{
glyphname = OE;
lastChange = "2026-03-12 19:03:50 +0000";
layers = (
{
layerId = "442442E3-15B6-417A-B1AA-7726B8899A2D";
shapes = (
{
closed = 1;
nodes = (
(116,770,cs),
(29,740,o),
(22,709,o),
(22,405,cs),
(22,27,o),
(34,9,o),
(298,9,cs),
(581,9,o),
(601,44,o),
(585,512,cs),
(576,774,o),
(567,783,o),
(310,782,cs),
(195,782,o),
(141,779,o)
);
},
{
closed = 1;
nodes = (
(378,646,cs),
(391,624,o),
(391,177,o),
(378,154,cs),
(367,134,o),
(253,129,o),
(234,148,cs),
(220,162,o),
(219,621,o),
(232,646,cs),
(240,660,o),
(251,663,o),
(305,663,cs),
(360,663,o),
(371,660,o)
);
},
{
closed = 1;
nodes = (
(150,478,cs),
(164,418,o),
(168,387,o),
(163,375,cs),
(158,365,o),
(147,325,o),
(138,284,cs),
(123,212,o),
(123,212,o),
(116,245,cs),
(113,264,o),
(102,307,o),
(92,339,cs),
(77,392,o),
(77,404,o),
(85,442,cs),
(106,527,o),
(123,581,o),
(126,572,cs),
(128,567,o),
(138,525,o)
);
},
{
closed = 1;
nodes = (
(513,486,c),
(534,402,l),
(515,324,l),
(493,227,o),
(483,202,o),
(483,233,cs),
(482,245,o),
(473,287,o),
(462,327,cs),
(441,405,o),
(441,408,o),
(475,546,cs),
(485,589,o),
(488,584,o)
);
},
{
closed = 1;
nodes = (
(451,773,cs),
(449,767,o),
(448,593,o),
(449,387,c),
(451,13,l),
(701,13,l),
(950,13,l),
(953,76,l),
(955,138,l),
(808,138,l),
(661,138,l),
(664,239,l),
(666,340,l),
(746,343,l),
(825,345,l),
(825,400,l),
(825,456,l),
(744,456,l),
(662,456,l),
(662,555,l),
(662,654,l),
(808,654,l),
(955,654,l),
(953,717,l),
(950,779,l),
(702,781,l),
(509,783,o),
(454,781,o)
);
},
{
closed = 1;
nodes = (
(579,494,cs),
(600,415,o),
(601,404,o),
(590,374,cs),
(584,356,o),
(573,313,o),
(567,278,cs),
(554,207,o),
(546,204,o),
(539,270,cs),
(535,295,o),
(527,333,o),
(519,354,cs),
(506,390,o),
(507,398,o),
(525,492,cs),
(548,609,o),
(549,609,o)
);
}
);
width = 989;
},
{
layerId = m01;
width = 600;
}
);
unicode = 338;
},
{
glyphname = P;
lastChange = "2026-03-12 19:02:09 +0000";
layers = (
{
layerId = m01;
width = 600;
},
{
anchors = (
{
name = bottom;
pos = (284,0);
},
{
name = top;
pos = (284,700);
}
);
layerId = "442442E3-15B6-417A-B1AA-7726B8899A2D";
shapes = (
{
closed = 1;
nodes = (
(22,775,cs),
(15,765,o),
(20,28,o),
(26,17,cs),
(29,11,o),
(71,9,o),
(134,11,c),
(237,13,l),
(239,141,l),
(242,267,l),
(329,267,l),
(504,268,o),
(538,311,o),
(538,538,cs),
(538,774,o),
(526,783,o),
(227,783,cs),
(117,783,o),
(25,780,o)
);
},
{
closed = 1;
nodes = (
(377,632,cs),
(395,620,o),
(396,613,o),
(396,516,cs),
(396,384,o),
(391,377,o),
(299,381,c),
(237,383,l),
(238,433,l),
(240,564,l),
(241,645,l),
(299,645,l),
(338,645,o),
(364,641,o)
);
},
{
closed = 1;
nodes = (
(138,558,cs),
(138,547,o),
(146,509,o),
(156,471,c),
(175,403,l),
(156,326,l),
(146,284,o),
(138,242,o),
(138,233,cs),
(138,223,o),
(134,215,o),
(129,215,cs),
(125,215,o),
(120,224,o),
(120,234,cs),
(120,245,o),
(112,284,o),
(102,322,cs),
(83,391,o),
(87,446,o),
(118,562,cs),
(123,583,o),
(138,580,o)
);
}
);
width = 568;
}
);
unicode = 80;
},
{
glyphname = Q;
lastChange = "2026-03-12 19:02:09 +0000";
layers = (
{
layerId = m01;
width = 600;
},
{
anchors = (
{
name = bottom;
pos = (309,0);
},
{
name = top;
pos = (309,700);
}
);
layerId = "442442E3-15B6-417A-B1AA-7726B8899A2D";
shapes = (
{
closed = 1;
nodes = (
(108,771,cs),
(25,735,o),
(15,694,o),
(19,385,cs),
(22,83,o),
(28,62,o),
(110,30,c),
(154,13,l),
(157,-86,l),
(159,-185,l),
(295,-187,l),
(430,-190,l),
(430,-138,l),
(430,-87,l),
(370,-84,l),
(298,-81,o),
(292,-75,o),
(298,-29,c),
(303,6,l),
(382,11,l),
(572,23,o),
(585,48,o),
(585,405,cs),
(585,779,o),
(582,783,o),
(286,783,cs),
(179,782,o),
(126,779,o)
);
},
{
closed = 1;
nodes = (
(382,644,cs),
(391,609,o),
(388,172,o),
(378,154,cs),
(368,136,o),
(258,130,o),
(232,147,cs),
(214,158,o),
(214,627,o),
(231,649,cs),
(251,673,o),
(375,669,o)
);
},
{
closed = 1;
nodes = (
(146,484,c),
(166,404,l),
(142,313,l),
(117,221,l),
(107,272,l),
(102,300,o),
(91,343,o),
(84,366,cs),
(73,402,o),
(73,414,o),
(83,442,cs),
(89,459,o),
(98,497,o),
(104,526,cs),
(116,590,o),
(120,585,o)
);
},
{
closed = 1;
nodes = (
(513,485,cs),
(533,400,o),
(532,372,o),
(507,314,cs),
(502,305,o),
(495,280,o),
(492,258,c),
(486,221,l),
(463,314,l),
(439,409,l),
(455,476,l),
(464,512,o),
(470,542,o),
(467,542,cs),
(465,542,o),
(468,550,o),
(473,560,cs),
(487,585,o),
(489,581,o)
);
}
);
width = 619;
}
);
unicode = 81;
},
{
glyphname = R;
lastChange = "2026-03-12 19:02:09 +0000";
layers = (
{
layerId = m01;
width = 600;
},
{
anchors = (
{
name = bottom;
pos = (305,0);
},
{
name = top;
pos = (305,700);
}
);
layerId = "442442E3-15B6-417A-B1AA-7726B8899A2D";
shapes = (
{
closed = 1;
nodes = (
(19,399,l),
(22,13,l),
(127,11,l),
(232,8,l),
(232,159,l),
(232,310,l),
(266,310,l),
(318,310,o),
(348,240,o),
(329,159,cs),
(321,123,o),
(323,118,o),
(343,91,cs),
(355,75,o),
(372,50,o),
(380,36,c),
(395,9,l),
(486,9,l),
(536,9,o),
(576,12,o),
(576,17,cs),
(576,30,o),
(519,99,o),
(489,122,cs),
(423,173,o),
(396,328,o),
(452,337,cs),
(520,348,o),
(545,409,o),
(544,568,cs),
(542,771,o),
(532,778,o),
(235,781,c),
(17,784,l)
);
},
{
closed = 1;
nodes = (
(384,633,cs),
(397,623,o),
(401,608,o),
(403,544,cs),
(407,443,o),
(403,439,o),
(305,439,c),
(232,439,l),
(232,528,l),
(232,578,o),
(235,624,o),
(237,632,cs),
(244,650,o),
(359,651,o)
);
},
{
closed = 1;
nodes = (
(155,469,l),
(171,409,l),
(146,323,l),
(122,237,l),
(114,271,l),
(99,331,l),
(85,380,l),
(79,395,o),
(82,424,o),
(95,483,cs),
(118,590,o),
(121,596,o),
(131,559,c)
);
}
);
width = 611;
}
);
unicode = 82;
},
{
glyphname = S;
lastChange = "2026-03-12 19:02:09 +0000";
layers = (
{
layerId = m01;
width = 600;
},
{
anchors = (
{
name = bottom;
pos = (253,0);
},
{
name = top;
pos = (253,700);
}
);
layerId = "442442E3-15B6-417A-B1AA-7726B8899A2D";
shapes = (
{
closed = 1;
nodes = (
(120,782,cs),
(50,753,o),
(21,679,o),
(29,548,cs),
(40,383,o),
(70,358,o),
(267,350,cs),
(407,344,o),
(413,340,o),
(413,254,cs),
(413,152,o),
(409,148,o),
(274,145,cs),
(162,141,o),
(146,151,o),
(139,223,c),
(135,267,l),
(84,267,l),
(33,267,l),
(36,171,l),
(40,27,o),
(63,14,o),
(305,19,cs),
(475,23,o),
(504,32,o),
(534,98,cs),
(564,164,o),
(552,348,o),
(516,384,cs),
(466,434,o),
(446,439,o),
(312,439,c),
(208,439,l),
(185,467,l),
(151,507,o),
(156,620,o),
(193,651,cs),
(256,706,o),
(404,675,o),
(412,606,c),
(417,564,l),
(480,561,l),
(544,559,l),
(540,645,l),
(538,729,o),
(537,731,o),
(509,759,c),
(482,787,l),
(311,789,l),
(211,790,o),
(133,787,o)
);
}
);
width = 585;
}
);
unicode = 83;
},
{
glyphname = T;
lastChange = "2026-03-12 19:02:09 +0000";
layers = (
{
layerId = m01;
width = 600;
},
{
anchors = (
{
name = bottom;
pos = (301,0);
},
{
name = top;
pos = (301,700);
}
);
layerId = "442442E3-15B6-417A-B1AA-7726B8899A2D";
shapes = (
{
closed = 1;
nodes = (
(17,723,l),
(17,654,l),
(99,654,l),
(181,654,l),
(181,531,l),
(181,463,o),
(183,319,o),
(187,212,c),
(192,17,l),
(296,19,l),
(400,22,l),
(403,338,l),
(404,654,l),
(490,654,l),
(576,654,l),
(576,723,l),
(576,792,l),
(297,792,l),
(17,792,l)
);
},
{
closed = 1;
nodes = (
(301,578,cs),
(301,571,o),
(311,527,o),
(322,481,cs),
(342,398,o),
(342,356,o),
(317,308,cs),
(313,300,o),
(307,272,o),
(305,246,cs),
(298,200,o),
(284,187,o),
(284,229,cs),
(284,254,o),
(258,362,o),
(249,374,cs),
(246,380,o),
(244,389,o),
(245,396,cs),
(278,571,o),
(301,645,o)
);
}
);
width = 602;
}
);
unicode = 84;
},
{
glyphname = U;
lastChange = "2026-03-12 19:02:09 +0000";
layers = (
{
layerId = m01;
width = 600;
},
{
anchors = (
{
name = bottom;
pos = (279,0);
},
{
name = top;
pos = (279,700);
}
);
layerId = "442442E3-15B6-417A-B1AA-7726B8899A2D";
shapes = (
{
closed = 1;
nodes = (
(23,787,cs),
(14,776,o),
(16,155,o),
(26,119,cs),
(52,27,o),
(92,15,o),
(357,19,cs),
(660,24,o),
(641,-6,o),
(641,452,c),
(641,787,l),
(533,787,l),
(426,787,l),
(423,472,l),
(422,155,l),
(331,155,l),
(241,155,l),
(239,472,l),
(237,787,l),
(132,790,l),
(76,791,o),
(27,789,o)
);
},
{
closed = 1;
nodes = (
(154,515,cs),
(179,406,o),
(179,410,o),
(151,311,cs),
(127,223,o),
(120,208,o),
(120,243,cs),
(120,255,o),
(111,298,o),
(100,338,cs),
(82,398,o),
(80,416,o),
(87,444,cs),
(92,462,o),
(102,506,o),
(109,541,cs),
(127,621,o),
(131,619,o)
);
},
{
closed = 1;
nodes = (
(575,442,cs),
(583,413,o),
(581,393,o),
(563,331,cs),
(551,288,o),
(542,245,o),
(541,233,cs),
(540,199,o),
(529,230,o),
(507,328,c),
(489,411,l),
(507,496,l),
(536,627,o),
(530,631,o)
);
}
);
width = 688;
}
);
unicode = 85;
},
{
glyphname = V;
lastChange = "2026-03-12 19:02:09 +0000";
layers = (
{
layerId = m01;
width = 600;
},
{
anchors = (
{
name = bottom;
pos = (344,0);
},
{
name = top;
pos = (344,700);
}
);
layerId = "442442E3-15B6-417A-B1AA-7726B8899A2D";
shapes = (
{
closed = 1;
nodes = (
(13,751,l),
(21,680,o),
(43,471,o),
(47,418,cs),
(52,367,o),
(83,99,o),
(91,45,c),
(95,18,l),
(337,19,l),
(580,22,l),
(586,48,l),
(600,101,o),
(649,759,o),
(642,780,cs),
(633,803,o),
(432,797,o),
(422,773,cs),
(416,755,o),
(404,572,o),
(389,241,c),
(383,125,l),
(340,125,l),
(297,125,l),
(286,250,l),
(234,874,o),
(259,792,o),
(120,792,c),
(8,792,l)
);
},
{
closed = 1;
nodes = (
(183,498,c),
(206,400,l),
(189,331,l),
(180,294,o),
(173,250,o),
(172,235,cs),
(172,203,o),
(155,196,o),
(155,227,cs),
(155,237,o),
(145,280,o),
(134,322,c),
(114,398,l),
(132,496,l),
(153,617,o),
(156,617,o)
);
},
{
closed = 1;
nodes = (
(521,559,cs),
(524,543,o),
(532,500,o),
(542,464,cs),
(558,399,o),
(558,398,o),
(542,337,cs),
(532,303,o),
(525,265,o),
(525,252,cs),
(525,239,o),
(521,222,o),
(516,215,cs),
(507,200,o),
(506,201,o),
(483,313,c),
(465,398,l),
(484,496,l),
(503,594,o),
(516,615,o)
);
}
);
width = 688;
}
);
unicode = 86;
},
{
glyphname = W;
lastChange = "2026-03-12 19:02:09 +0000";
layers = (
{
layerId = m01;
width = 600;
},
{
anchors = (
{
name = bottom;
pos = (477,0);
},
{
name = top;
pos = (477,700);
}
);
layerId = "442442E3-15B6-417A-B1AA-7726B8899A2D";
shapes = (
{
closed = 1;
nodes = (
(21,717,l),
(23,675,o),
(30,565,o),
(34,473,cs),
(42,323,o),
(47,248,o),
(65,71,c),
(71,18,l),
(241,18,l),
(410,18,l),
(421,118,l),
(457,485,o),
(474,587,o),
(485,489,c),
(494,409,l),
(511,228,l),
(520,143,o),
(528,62,o),
(532,48,c),
(538,22,l),
(703,19,l),
(868,18,l),
(873,45,l),
(878,78,o),
(898,354,o),
(913,605,cs),
(924,808,o),
(933,793,o),
(803,790,c),
(701,787,l),
(699,744,l),
(688,568,l),
(683,495,o),
(679,364,o),
(679,278,c),
(679,121,l),
(645,121,l),
(607,121,o),
(607,121,o),
(598,254,c),
(585,400,l),
(581,443,o),
(572,540,o),
(567,615,cs),
(553,802,o),
(558,792,o),
(470,792,cs),
(379,792,o),
(391,826,o),
(366,494,cs),
(335,96,o),
(339,121,o),
(311,121,cs),
(268,121,o),
(268,122,o),
(258,344,cs),
(242,733,o),
(238,779,o),
(229,785,cs),
(224,788,o),
(173,792,o),
(117,792,c),
(15,792,l)
);
},
{
closed = 1;
nodes = (
(809,553,cs),
(814,526,o),
(823,481,o),
(830,454,cs),
(839,418,o),
(840,397,o),
(833,374,cs),
(821,328,o),
(816,311,o),
(805,256,cs),
(796,208,o),
(783,197,o),
(783,237,cs),
(783,247,o),
(775,288,o),
(765,328,cs),
(749,388,o),
(748,406,o),
(756,439,c),
(779,541,l),
(796,615,o),
(797,615,o)
);
},
{
closed = 1;
nodes = (
(159,558,cs),
(161,547,o),
(169,508,o),
(179,471,c),
(196,404,l),
(174,300,l),
(155,214,o),
(150,200,o),
(145,221,cs),
(97,415,o),
(97,408,o),
(126,532,cs),
(139,594,o),
(154,605,o)
);
}
);
width = 955;
}
);
unicode = 87;
},
{
glyphname = X;
lastChange = "2026-03-12 19:02:09 +0000";
layers = (
{
layerId = m01;
width = 600;
},
{
anchors = (
{
name = bottom;
pos = (357,0);
},
{
name = top;
pos = (357,700);
}
);
layerId = "442442E3-15B6-417A-B1AA-7726B8899A2D";
shapes = (
{
closed = 1;
nodes = (
(26,784,cs),
(26,780,o),
(40,751,o),
(58,721,cs),
(75,692,o),
(96,651,o),
(106,633,c),
(173,510,l),
(224,421,l),
(120,226,l),
(11,24,l),
(9,20,o),
(59,18,o),
(122,18,c),
(237,18,l),
(292,134,l),
(359,274,o),
(347,274,o),
(413,134,c),
(468,18,l),
(572,18,l),
(630,18,o),
(680,20,o),
(682,24,cs),
(688,29,o),
(552,296,o),
(495,393,c),
(479,419,l),
(563,569,l),
(663,747,l),
(688,791,o),
(687,792,o),
(570,792,c),
(460,792,l),
(409,693,l),
(348,572,o),
(351,572,o),
(292,693,c),
(245,792,l),
(136,792,l),
(75,792,o),
(26,788,o)
);
},
{
closed = 1;
nodes = (
(410,510,c),
(460,432,l),
(466,421,o),
(396,303,o),
(368,278,cs),
(349,261,o),
(317,288,o),
(286,350,cs),
(276,370,o),
(263,393,o),
(257,403,cs),
(243,427,o),
(252,453,o),
(301,519,cs),
(354,591,o),
(356,591,o)
);
}
);
width = 714;
}
);
unicode = 88;
},
{
glyphname = Y;
lastChange = "2026-03-12 19:02:09 +0000";
layers = (
{
layerId = m01;
width = 600;
},
{
anchors = (
{
name = bottom;
pos = (322,0);
},
{
name = top;
pos = (322,700);
}
);
layerId = "442442E3-15B6-417A-B1AA-7726B8899A2D";
shapes = (
{
closed = 1;
nodes = (
(5,784,cs),
(0,775,o),
(30,716,o),
(132,534,c),
(202,409,l),
(206,215,l),
(211,22,l),
(314,22,l),
(417,22,l),
(422,224,l),
(426,426,l),
(452,469,l),
(532,599,o),
(619,761,o),
(619,779,cs),
(619,790,o),
(605,792,o),
(519,790,c),
(417,787,l),
(368,686,l),
(310,566,o),
(313,566,o),
(255,688,cs),
(232,738,o),
(208,781,o),
(203,785,cs),
(189,794,o),
(10,793,o)
);
},
{
closed = 1;
nodes = (
(370,442,cs),
(370,426,o),
(363,391,o),
(354,364,cs),
(345,337,o),
(333,292,o),
(326,264,cs),
(314,207,o),
(308,209,o),
(292,280,cs),
(286,308,o),
(274,350,o),
(265,374,cs),
(245,424,o),
(248,440,o),
(285,521,c),
(311,581,l),
(341,525,l),
(356,494,o),
(369,456,o)
);
}
);
width = 645;
}
);
unicode = 89;
},
{
glyphname = Z;
lastChange = "2026-03-12 19:02:09 +0000";
layers = (
{
layerId = m01;
width = 600;
},
{
anchors = (
{
name = bottom;
pos = (279,0);
},
{
name = top;
pos = (279,700);
}
);
layerId = "442442E3-15B6-417A-B1AA-7726B8899A2D";
shapes = (
{
closed = 1;
nodes = (
(32,786,cs),
(28,783,o),
(26,754,o),
(26,721,c),
(26,663,l),
(192,663,l),
(404,663,o),
(428,647,o),
(370,553,cs),
(356,531,o),
(348,525,o),
(337,530,cs),
(207,586,o),
(35,350,o),
(3,72,c),
(-3,18,l),
(270,18,l),
(543,18,l),
(540,85,l),
(538,151,l),
(379,155,l),
(221,159,l),
(200,197,l),
(189,219,o),
(175,242,o),
(169,249,cs),
(137,284,o),
(171,388,o),
(205,359,cs),
(241,328,o),
(308,337,o),
(354,377,cs),
(415,432,o),
(522,666,o),
(527,757,c),
(529,787,l),
(283,790,l),
(148,791,o),
(35,789,o)
);
}
);
width = 559;
}
);
unicode = 90;
},
{
glyphname = a;
lastChange = "2026-03-12 19:02:09 +0000";
layers = (
{
layerId = m01;
width = 600;
},
{
anchors = (
{
name = bottom;
pos = (281,0);
},
{
name = top;
pos = (281,500);
}
);
layerId = "442442E3-15B6-417A-B1AA-7726B8899A2D";
shapes = (
{
closed = 1;
nodes = (
(26,513,l),
(26,439,l),
(188,439,l),
(369,439,o),
(363,441,o),
(355,381,c),
(351,346,l),
(237,343,l),
(35,338,o),
(-64,174,o),
(60,50,c),
(93,18,l),
(189,18,l),
(278,18,o),
(290,19,o),
(324,39,c),
(361,61,l),
(361,39,l),
(361,18,l),
(456,18,l),
(551,18,l),
(551,253,l),
(551,592,o),
(562,580,o),
(244,584,c),
(26,587,l)
);
},
{
closed = 1;
nodes = (
(484,347,c),
(504,280,l),
(487,228,l),
(466,164,l),
(465,157,o),
(453,178,o),
(442,211,c),
(421,271,l),
(436,343,l),
(455,430,o),
(458,430,o)
);
},
{
closed = 1;
nodes = (
(361,190,l),
(361,138,l),
(241,138,l),
(99,138,o),
(77,150,o),
(106,212,c),
(120,241,l),
(241,241,l),
(361,241,l)
);
}
);
width = 585;
}
);
unicode = 97;
},
{
glyphname = ae;
lastChange = "2026-03-12 19:03:50 +0000";
layers = (
{
layerId = "442442E3-15B6-417A-B1AA-7726B8899A2D";
shapes = (
{
closed = 1;
nodes = (
(26,513,l),
(26,439,l),
(188,439,l),
(369,439,o),
(363,441,o),
(355,381,c),
(351,346,l),
(237,343,l),
(35,338,o),
(-64,174,o),
(60,50,c),
(93,18,l),
(189,18,l),
(278,18,o),
(290,19,o),
(324,39,c),
(361,61,l),
(361,39,l),
(361,18,l),
(456,18,l),
(551,18,l),
(551,253,l),
(551,592,o),
(562,580,o),
(244,584,c),
(26,587,l)
);
},
{
closed = 1;
nodes = (
(484,347,c),
(504,280,l),
(487,228,l),
(466,164,l),
(465,157,o),
(453,178,o),
(442,211,c),
(421,271,l),
(436,343,l),
(455,430,o),
(458,430,o)
);
},
{
closed = 1;
nodes = (
(361,190,l),
(361,138,l),
(241,138,l),
(99,138,o),
(77,150,o),
(106,212,c),
(120,241,l),
(241,241,l),
(361,241,l)
);
},
{
closed = 1;
nodes = (
(490,579,cs),
(429,557,o),
(413,512,o),
(409,350,cs),
(402,132,o),
(409,89,o),
(447,49,c),
(480,18,l),
(674,18,l),
(869,18,l),
(869,82,l),
(869,147,l),
(702,147,l),
(494,147,o),
(470,154,o),
(487,219,c),
(492,241,l),
(633,241,l),
(856,241,o),
(901,283,o),
(870,463,cs),
(853,566,o),
(636,633,o)
);
},
{
closed = 1;
nodes = (
(774,431,cs),
(784,412,o),
(785,379,o),
(778,358,cs),
(773,346,o),
(752,344,o),
(627,344,c),
(482,344,l),
(482,377,l),
(482,443,o),
(491,448,o),
(636,448,cs),
(754,448,o),
(765,446,o)
);
}
);
width = 912;
},
{
layerId = m01;
width = 600;
}
);
unicode = 230;
},
{
glyphname = b;
lastChange = "2026-03-12 19:02:09 +0000";
layers = (
{
layerId = m01;
width = 600;
},
{
anchors = (
{
name = bottom;
pos = (288,0);
},
{
name = top;
pos = (288,500);
}
);
layerId = "442442E3-15B6-417A-B1AA-7726B8899A2D";
shapes = (
{
closed = 1;
nodes = (
(17,443,l),
(17,17,l),
(114,19,l),
(211,22,l),
(213,46,l),
(217,74,o),
(216,74,o),
(260,46,cs),
(348,-13,o),
(507,18,o),
(538,99,cs),
(557,149,o),
(552,479,o),
(532,521,cs),
(491,606,o),
(289,609,o),
(237,526,cs),
(219,498,o),
(215,530,o),
(215,693,c),
(215,869,l),
(116,869,l),
(17,869,l)
);
},
{
closed = 1;
nodes = (
(357,301,l),
(357,151,l),
(286,148,l),
(215,146,l),
(215,301,l),
(215,457,l),
(286,454,l),
(357,452,l)
);
},
{
closed = 1;
nodes = (
(477,350,c),
(492,282,l),
(472,219,l),
(452,154,o),
(439,138,o),
(439,177,cs),
(439,188,o),
(432,214,o),
(424,233,cs),
(409,270,o),
(412,302,o),
(440,399,cs),
(452,442,o),
(458,433,o)
);
},
{
closed = 1;
nodes = (
(144,344,c),
(160,280,l),
(142,222,l),
(120,150,o),
(114,145,o),
(107,186,cs),
(103,205,o),
(95,233,o),
(89,251,cs),
(80,278,o),
(82,292,o),
(96,352,cs),
(117,433,o),
(120,432,o)
);
}
);
width = 576;
}
);
unicode = 98;
},
{
glyphname = c;
lastChange = "2026-03-12 19:02:09 +0000";
layers = (
{
layerId = m01;
width = 600;
},
{
anchors = (
{
name = bottom;
pos = (262,0);
},
{
name = top;
pos = (298,500);
}
);
layerId = "442442E3-15B6-417A-B1AA-7726B8899A2D";
shapes = (
{
closed = 1;
nodes = (
(77,565,cs),
(28,533,o),
(26,523,o),
(26,303,cs),
(26,-1,o),
(12,10,o),
(398,16,c),
(499,18,l),
(499,82,l),
(499,147,l),
(355,148,l),
(212,151,l),
(209,299,l),
(206,447,l),
(280,449,l),
(369,453,o),
(370,452,o),
(370,421,c),
(370,395,l),
(433,398,l),
(495,400,l),
(497,493,l),
(500,585,l),
(303,585,l),
(112,585,o),
(105,584,o)
);
},
{
closed = 1;
nodes = (
(129,397,cs),
(129,388,o),
(137,359,o),
(146,331,c),
(163,281,l),
(146,235,l),
(137,209,o),
(129,181,o),
(129,172,cs),
(129,124,o),
(104,184,o),
(89,269,cs),
(83,299,o),
(110,424,o),
(121,418,cs),
(126,414,o),
(129,405,o)
);
}
);
width = 525;
}
);
unicode = 99;
},
{
glyphname = d;
lastChange = "2026-03-12 19:02:09 +0000";
layers = (
{
layerId = m01;
width = 600;
},
{
anchors = (
{
name = bottom;
pos = (292,0);
},
{
name = top;
pos = (292,500);
}
);
layerId = "442442E3-15B6-417A-B1AA-7726B8899A2D";
shapes = (
{
closed = 1;
nodes = (
(359,863,cs),
(355,861,o),
(353,783,o),
(353,691,cs),
(353,599,o),
(349,525,o),
(345,525,cs),
(341,525,o),
(317,539,o),
(292,555,cs),
(210,610,o),
(72,594,o),
(37,525,cs),
(22,495,o),
(22,108,o),
(37,79,cs),
(76,2,o),
(222,-3,o),
(354,67,cs),
(358,69,o),
(361,60,o),
(363,46,c),
(366,22,l),
(458,19,l),
(551,17,l),
(551,443,l),
(551,869,l),
(458,869,l),
(406,869,o),
(361,867,o)
);
},
{
closed = 1;
nodes = (
(360,300,l),
(361,147,l),
(288,147,l),
(215,147,l),
(215,295,l),
(215,469,o),
(209,458,o),
(292,454,c),
(357,452,l)
);
},
{
closed = 1;
nodes = (
(150,339,cs),
(163,282,o),
(163,275,o),
(151,232,cs),
(128,160,o),
(123,148,o),
(118,164,cs),
(84,267,o),
(83,283,o),
(99,347,cs),
(123,442,o),
(126,442,o)
);
},
{
closed = 1;
nodes = (
(479,346,c),
(498,280,l),
(480,228,l),
(458,164,l),
(457,157,o),
(446,179,o),
(434,214,c),
(413,276,l),
(432,349,l),
(453,433,o),
(454,433,o)
);
}
);
width = 585;
}
);
unicode = 100;
},
{
glyphname = eth;
lastChange = "2026-03-12 19:03:50 +0000";
layers = (
{
layerId = "442442E3-15B6-417A-B1AA-7726B8899A2D";
shapes = (
{
closed = 1;
nodes = (
(367,838,cs),
(344,830,o),
(329,829,o),
(318,835,cs),
(310,840,o),
(242,843,o),
(169,843,cs),
(19,843,o),
(32,849,o),
(23,777,c),
(20,749,l),
(108,749,l),
(246,749,o),
(251,743,o),
(159,684,cs),
(63,623,o),
(78,614,o),
(210,655,cs),
(273,674,o),
(293,660,o),
(334,575,cs),
(335,572,o),
(281,568,o),
(213,566,cs),
(22,562,o),
(17,554,o),
(17,301,cs),
(17,23,o),
(37,3,o),
(297,11,cs),
(513,18,o),
(520,28,o),
(520,310,cs),
(520,530,o),
(516,553,o),
(442,702,cs),
(397,795,o),
(397,788,o),
(433,805,cs),
(468,824,o),
(466,821,o),
(459,838,cs),
(452,855,o),
(413,855,o)
);
},
{
closed = 1;
nodes = (
(335,297,l),
(335,146,l),
(269,148,l),
(202,151,l),
(198,181,l),
(195,197,o),
(194,264,o),
(196,330,c),
(199,448,l),
(268,448,l),
(335,448,l)
);
},
{
closed = 1;
nodes = (
(456,337,cs),
(471,233,o),
(438,119,o),
(415,196,cs),
(397,258,o),
(396,275,o),
(409,346,cs),
(431,466,o),
(438,465,o)
);
},
{
closed = 1;
nodes = (
(129,348,cs),
(141,285,o),
(137,220,o),
(118,184,c),
(105,159,l),
(95,196,l),
(81,248,o),
(81,288,o),
(95,355,cs),
(108,424,o),
(115,423,o)
);
}
);
width = 559;
},
{
layerId = m01;
width = 600;
}
);
unicode = 240;
},
{
glyphname = e;
lastChange = "2026-03-12 19:02:09 +0000";
layers = (
{
layerId = m01;
width = 600;
},
{
anchors = (
{
name = bottom;
pos = (298,0);
},
{
name = top;
pos = (298,500);
}
);
layerId = "442442E3-15B6-417A-B1AA-7726B8899A2D";
shapes = (
{
closed = 1;
nodes = (
(103,579,cs),
(42,557,o),
(26,512,o),
(22,350,cs),
(15,132,o),
(22,89,o),
(60,49,c),
(93,18,l),
(287,18,l),
(482,18,l),
(482,82,l),
(482,147,l),
(315,147,l),
(107,147,o),
(83,154,o),
(100,219,c),
(105,241,l),
(246,241,l),
(469,241,o),
(514,283,o),
(483,463,cs),
(466,566,o),
(249,633,o)
);
},
{
closed = 1;
nodes = (
(387,431,cs),
(397,412,o),
(398,379,o),
(391,358,cs),
(386,346,o),
(365,344,o),
(240,344,c),
(95,344,l),
(95,377,l),
(95,443,o),
(104,448,o),
(249,448,cs),
(367,448,o),
(378,446,o)
);
}
);
width = 525;
}
);
unicode = 101;
},
{
glyphname = f;
lastChange = "2026-03-12 19:02:09 +0000";
layers = (
{
layerId = m01;
width = 600;
},
{
anchors = (
{
name = bottom;
pos = (180,0);
},
{
name = top;
pos = (180,500);
}
);
layerId = "442442E3-15B6-417A-B1AA-7726B8899A2D";
shapes = (
{
closed = 1;
nodes = (
(77,845,cs),
(17,816,o),
(17,816,o),
(17,393,c),
(17,17,l),
(114,19,l),
(211,22,l),
(213,244,l),
(215,465,l),
(261,465,l),
(316,465,o),
(327,474,o),
(327,521,cs),
(327,576,o),
(316,584,o),
(241,587,c),
(176,590,l),
(174,649,l),
(170,722,o),
(171,723,o),
(269,723,c),
(344,723,l),
(344,792,l),
(344,861,l),
(226,861,l),
(131,861,o),
(102,858,o)
);
},
{
closed = 1;
nodes = (
(145,344,c),
(163,280,l),
(143,221,l),
(120,157,o),
(112,142,o),
(112,171,cs),
(112,182,o),
(103,209,o),
(94,233,cs),
(77,270,o),
(77,280,o),
(85,316,cs),
(117,443,o),
(117,443,o)
);
}
);
width = 361;
}
);
unicode = 102;
},
{
glyphname = g;
lastChange = "2026-03-12 19:02:09 +0000";
layers = (
{
layerId = m01;
width = 600;
},
{
anchors = (
{
name = bottom;
pos = (284,0);
},
{
name = top;
pos = (284,500);
}
);
layerId = "442442E3-15B6-417A-B1AA-7726B8899A2D";
shapes = (
{
closed = 1;
nodes = (
(113,585,cs),
(97,582,o),
(70,565,o),
(52,547,c),
(22,516,l),
(19,329,l),
(15,116,o),
(22,82,o),
(66,43,cs),
(108,7,o),
(248,5,o),
(313,39,c),
(353,60,l),
(353,-17,l),
(353,-94,l),
(185,-94,l),
(17,-94,l),
(17,-167,l),
(17,-240,l),
(263,-242,l),
(422,-244,o),
(512,-241,o),
(516,-236,cs),
(538,-210,o),
(543,-136,o),
(540,215,c),
(538,581,l),
(445,584,l),
(353,586,l),
(348,559,l),
(341,528,o),
(345,528,o),
(290,559,cs),
(241,585,o),
(163,597,o)
);
},
{
closed = 1;
nodes = (
(353,297,l),
(353,138,l),
(299,138,l),
(200,138,o),
(206,127,o),
(206,294,cs),
(206,461,o),
(203,455,o),
(295,456,c),
(353,456,l)
);
},
{
closed = 1;
nodes = (
(472,346,cs),
(489,282,o),
(489,276,o),
(477,251,cs),
(469,235,o),
(461,208,o),
(458,189,cs),
(452,147,o),
(450,149,o),
(425,221,c),
(405,280,l),
(423,350,l),
(444,435,o),
(448,435,o)
);
},
{
closed = 1;
nodes = (
(135,217,l),
(114,152,l),
(95,214,l),
(77,277,o),
(77,279,o),
(91,339,cs),
(112,425,o),
(113,425,o),
(136,350,c),
(157,282,l)
);
}
);
width = 568;
}
);
unicode = 103;
},
{
glyphname = h;
lastChange = "2026-03-12 19:02:09 +0000";
layers = (
{
layerId = m01;
width = 600;
},
{
anchors = (
{
name = bottom;
pos = (305,0);
},
{
name = top;
pos = (305,500);
}
);
layerId = "442442E3-15B6-417A-B1AA-7726B8899A2D";
shapes = (
{
closed = 1;
nodes = (
(17,443,l),
(17,18,l),
(116,18,l),
(215,18,l),
(215,237,l),
(215,456,l),
(243,456,l),
(258,456,o),
(297,454,o),
(329,450,c),
(387,445,l),
(387,231,l),
(387,17,l),
(484,19,l),
(581,22,l),
(581,267,l),
(581,581,o),
(578,585,o),
(422,585,cs),
(338,585,o),
(300,572,o),
(245,527,c),
(219,505,l),
(217,688,l),
(215,869,l),
(116,869,l),
(17,869,l)
);
},
{
closed = 1;
nodes = (
(129,398,cs),
(129,390,o),
(137,359,o),
(146,330,cs),
(163,276,o),
(163,276,o),
(146,236,cs),
(137,214,o),
(129,190,o),
(129,181,cs),
(129,148,o),
(113,156,o),
(103,191,cs),
(98,212,o),
(89,239,o),
(85,251,cs),
(77,273,o),
(84,321,o),
(108,407,cs),
(114,425,o),
(129,418,o)
);
},
{
closed = 1;
nodes = (
(511,344,cs),
(525,281,o),
(495,115,o),
(479,164,cs),
(446,260,o),
(444,274,o),
(460,343,cs),
(483,444,o),
(488,444,o)
);
}
);
width = 611;
}
);
unicode = 104;
},
{
glyphname = i;
lastChange = "2026-03-12 19:02:09 +0000";
layers = (
{
layerId = m01;
width = 600;
},
{
anchors = (
{
name = bottom;
pos = (120,0);
},
{
name = top;
pos = (120,500);
}
);
layerId = "442442E3-15B6-417A-B1AA-7726B8899A2D";
shapes = (
{
closed = 1;
nodes = (
(17,723,l),
(17,654,l),
(116,654,l),
(215,654,l),
(215,723,l),
(215,792,l),
(116,792,l),
(17,792,l)
);
},
{
closed = 1;
nodes = (
(17,301,l),
(17,18,l),
(116,18,l),
(215,18,l),
(215,301,l),
(215,585,l),
(116,585,l),
(17,585,l)
);
},
{
closed = 1;
nodes = (
(134,363,cs),
(137,344,o),
(143,325,o),
(147,322,cs),
(163,313,o),
(154,261,o),
(120,168,cs),
(102,116,o),
(75,276,o),
(90,344,cs),
(112,437,o),
(122,442,o)
);
}
);
width = 241;
}
);
unicode = 105;
},
{
glyphname = idotless;
lastChange = "2026-03-12 19:03:50 +0000";
layers = (
{
anchors = (
{
name = top;
pos = (120,500);
}
);
layerId = "442442E3-15B6-417A-B1AA-7726B8899A2D";
shapes = (
{
closed = 1;
nodes = (
(17,301,l),
(17,18,l),
(116,18,l),
(215,18,l),
(215,301,l),
(215,585,l),
(116,585,l),
(17,585,l)
);
},
{
closed = 1;
nodes = (
(134,363,cs),
(137,344,o),
(143,325,o),
(147,322,cs),
(163,313,o),
(154,261,o),
(120,168,cs),
(102,116,o),
(75,276,o),
(90,344,cs),
(112,437,o),
(122,442,o)
);
}
);
width = 241;
},
{
layerId = m01;
width = 600;
}
);
unicode = 305;
},
{
glyphname = j;
lastChange = "2026-03-12 19:02:09 +0000";
layers = (
{
layerId = m01;
width = 600;
},
{
anchors = (
{
name = bottom;
pos = (124,0);
},
{
name = top;
pos = (124,500);
}
);
layerId = "442442E3-15B6-417A-B1AA-7726B8899A2D";
shapes = (
{
closed = 1;
nodes = (
(19,725,l),
(22,658,l),
(114,656,l),
(205,653,l),
(208,722,l),
(211,790,l),
(114,791,l),
(16,793,l)
);
},
{
closed = 1;
nodes = (
(17,241,l),
(17,-103,l),
(-9,-103,l),
(-35,-103,l),
(-33,-169,l),
(-30,-236,l),
(71,-239,l),
(219,-242,o),
(212,-278,o),
(215,420,c),
(216,585,l),
(117,585,l),
(17,585,l)
);
},
{
closed = 1;
nodes = (
(142,347,cs),
(153,302,o),
(158,266,o),
(154,258,cs),
(151,251,o),
(141,222,o),
(133,194,cs),
(117,136,o),
(114,139,o),
(91,226,cs),
(76,282,o),
(76,285,o),
(95,357,cs),
(118,443,o),
(118,443,o)
);
}
);
width = 249;
}
);
unicode = 106;
},
{
glyphname = jdotless;
lastChange = "2026-03-12 19:03:50 +0000";
layers = (
{
anchors = (
{
name = top;
pos = (124,500);
}
);
layerId = "442442E3-15B6-417A-B1AA-7726B8899A2D";
shapes = (
{
closed = 1;
nodes = (
(17,241,l),
(17,-103,l),
(-9,-103,l),
(-35,-103,l),
(-33,-169,l),
(-30,-236,l),
(71,-239,l),
(219,-242,o),
(212,-278,o),
(215,420,c),
(216,585,l),
(117,585,l),
(17,585,l)
);
},
{
closed = 1;
nodes = (
(142,347,cs),
(153,302,o),
(158,266,o),
(154,258,cs),
(151,251,o),
(141,222,o),
(133,194,cs),
(117,136,o),
(114,139,o),
(91,226,cs),
(76,282,o),
(76,285,o),
(95,357,cs),
(118,443,o),
(118,443,o)
);
}
);
width = 249;
},
{
layerId = m01;
width = 600;
}
);
unicode = 567;
},
{
glyphname = k;
lastChange = "2026-03-12 19:02:09 +0000";
layers = (
{
layerId = m01;
width = 600;
},
{
anchors = (
{
name = bottom;
pos = (305,0);
},
{
name = top;
pos = (305,500);
}
);
layerId = "442442E3-15B6-417A-B1AA-7726B8899A2D";
shapes = (
{
closed = 1;
nodes = (
(17,443,l),
(17,18,l),
(116,18,l),
(215,18,l),
(215,129,l),
(215,241,l),
(327,241,l),
(438,241,l),
(452,215,l),
(458,202,o),
(465,179,o),
(465,165,c),
(465,139,l),
(415,141,l),
(366,142,l),
(366,82,l),
(366,22,l),
(484,19,l),
(549,18,o),
(602,19,o),
(602,22,c),
(585,102,l),
(553,245,l),
(538,314,l),
(447,317,l),
(397,318,o),
(353,320,o),
(347,323,cs),
(342,325,o),
(392,381,o),
(461,448,cs),
(610,596,o),
(609,585,o),
(477,585,c),
(370,585,l),
(324,515,l),
(253,399,l),
(215,331,o),
(215,333,o),
(215,611,c),
(215,869,l),
(116,869,l),
(17,869,l)
);
},
{
closed = 1;
nodes = (
(145,319,cs),
(156,281,o),
(124,137,o),
(110,160,cs),
(90,194,o),
(69,284,o),
(77,302,c),
(95,362,l),
(109,413,l),
(114,426,o),
(126,393,o)
);
}
);
width = 611;
}
);
unicode = 107;
},
{
glyphname = l;
lastChange = "2026-03-12 19:02:09 +0000";
layers = (
{
layerId = m01;
width = 600;
},
{
anchors = (
{
name = bottom;
pos = (120,0);
},
{
name = top;
pos = (120,500);
}
);
layerId = "442442E3-15B6-417A-B1AA-7726B8899A2D";
shapes = (
{
closed = 1;
nodes = (
(19,446,l),
(22,22,l),
(116,22,l),
(211,22,l),
(213,446,l),
(215,869,l),
(116,869,l),
(17,869,l)
);
},
{
closed = 1;
nodes = (
(138,353,c),
(157,285,l),
(137,220,l),
(114,146,o),
(112,147,o),
(91,225,cs),
(77,280,o),
(77,285,o),
(92,352,cs),
(111,438,o),
(114,438,o)
);
}
);
width = 241;
}
);
unicode = 108;
},
{
glyphname = m;
lastChange = "2026-03-12 19:02:09 +0000";
layers = (
{
layerId = m01;
width = 600;
},
{
anchors = (
{
name = bottom;
pos = (408,0);
},
{
name = top;
pos = (408,500);
}
);
layerId = "442442E3-15B6-417A-B1AA-7726B8899A2D";
shapes = (
{
closed = 1;
nodes = (
(280,578,cs),
(266,569,o),
(246,553,o),
(237,543,cs),
(215,518,o),
(208,520,o),
(205,553,c),
(202,581,l),
(109,584,l),
(17,586,l),
(19,304,l),
(22,22,l),
(114,19,l),
(205,17,l),
(211,79,l),
(214,115,o),
(216,148,o),
(215,155,cs),
(214,162,o),
(213,233,o),
(214,313,c),
(215,456,l),
(262,456,l),
(310,456,l),
(310,237,l),
(310,18,l),
(404,18,l),
(499,18,l),
(499,233,l),
(499,448,l),
(546,448,l),
(594,448,l),
(594,233,l),
(594,18,l),
(688,18,l),
(783,18,l),
(783,244,l),
(783,488,o),
(778,518,o),
(741,554,cs),
(688,604,o),
(561,602,o),
(495,549,cs),
(473,531,o),
(460,525,o),
(458,532,cs),
(438,591,o),
(342,616,o)
);
},
{
closed = 1;
nodes = (
(428,362,cs),
(431,327,o),
(412,203,o),
(402,192,cs),
(381,172,o),
(368,380,o),
(386,425,c),
(397,451,l),
(409,425,l),
(417,411,o),
(425,383,o)
);
},
{
closed = 1;
nodes = (
(697,406,cs),
(697,399,o),
(705,368,o),
(713,340,c),
(729,288,l),
(707,222,l),
(686,159,o),
(671,142,o),
(671,184,cs),
(671,195,o),
(665,222,o),
(657,245,cs),
(646,277,o),
(644,293,o),
(652,313,c),
(671,385,l),
(680,427,o),
(697,440,o)
);
},
{
closed = 1;
nodes = (
(155,282,cs),
(155,273,o),
(151,258,o),
(146,250,cs),
(141,241,o),
(132,213,o),
(126,188,cs),
(114,144,o),
(114,143,o),
(108,168,cs),
(105,183,o),
(96,214,o),
(89,239,cs),
(76,282,o),
(83,349,o),
(109,413,cs),
(114,426,o),
(155,310,o)
);
}
);
width = 817;
}
);
unicode = 109;
},
{
glyphname = n;
lastChange = "2026-03-12 19:02:09 +0000";
layers = (
{
layerId = m01;
width = 600;
},
{
anchors = (
{
name = bottom;
pos = (305,0);
},
{
name = top;
pos = (305,500);
}
);
layerId = "442442E3-15B6-417A-B1AA-7726B8899A2D";
shapes = (
{
closed = 1;
nodes = (
(17,301,l),
(17,17,l),
(110,19,l),
(202,22,l),
(205,239,l),
(206,457,l),
(291,454,l),
(374,452,l),
(378,237,l),
(383,22,l),
(477,22,l),
(572,22,l),
(575,248,l),
(577,504,o),
(572,531,o),
(513,567,cs),
(456,602,o),
(305,590,o),
(243,546,cs),
(209,520,o),
(208,520,o),
(205,553,c),
(202,581,l),
(110,584,l),
(17,586,l)
);
},
{
closed = 1;
nodes = (
(141,343,cs),
(157,275,o),
(132,131,o),
(111,165,cs),
(75,223,o),
(74,319,o),
(108,422,cs),
(115,442,o),
(125,420,o)
);
},
{
closed = 1;
nodes = (
(499,354,c),
(518,276,l),
(499,216,l),
(477,142,o),
(478,142,o),
(456,215,cs),
(438,274,o),
(438,276,o),
(452,342,cs),
(476,454,o),
(474,454,o)
);
}
);
width = 602;
}
);
unicode = 110;
},
{
glyphname = o;
lastChange = "2026-03-12 19:02:09 +0000";
layers = (
{
layerId = m01;
width = 600;
},
{
anchors = (
{
name = bottom;
pos = (271,0);
},
{
name = top;
pos = (271,500);
}
);
layerId = "442442E3-15B6-417A-B1AA-7726B8899A2D";
shapes = (
{
closed = 1;
nodes = (
(77,570,cs),
(16,537,o),
(-16,183,o),
(33,87,cs),
(80,-7,o),
(437,-18,o),
(502,72,cs),
(532,112,o),
(535,481,o),
(506,525,cs),
(465,587,o),
(169,617,o)
);
},
{
closed = 1;
nodes = (
(335,301,l),
(335,155,l),
(271,155,l),
(206,155,l),
(206,301,l),
(206,448,l),
(271,448,l),
(335,448,l)
);
},
{
closed = 1;
nodes = (
(138,350,cs),
(157,273,o),
(157,266,o),
(145,235,c),
(123,182,l),
(107,139,o),
(72,259,o),
(84,318,cs),
(113,451,o),
(114,452,o)
);
},
{
closed = 1;
nodes = (
(456,354,c),
(475,277,l),
(453,214,l),
(441,179,o),
(430,157,o),
(428,164,c),
(412,211,l),
(407,230,o),
(399,250,o),
(397,254,cs),
(386,269,o),
(418,430,o),
(431,430,cs),
(434,430,o),
(446,396,o)
);
}
);
width = 551;
}
);
unicode = 111;
},
{
glyphname = oe;
lastChange = "2026-03-12 19:03:50 +0000";
layers = (
{
layerId = "442442E3-15B6-417A-B1AA-7726B8899A2D";
shapes = (
{
closed = 1;
nodes = (
(77,570,cs),
(16,537,o),
(-16,183,o),
(33,87,cs),
(80,-7,o),
(437,-18,o),
(502,72,cs),
(532,112,o),
(535,481,o),
(506,525,cs),
(465,587,o),
(169,617,o)
);
},
{
closed = 1;
nodes = (
(335,301,l),
(335,155,l),
(271,155,l),
(206,155,l),
(206,301,l),
(206,448,l),
(271,448,l),
(335,448,l)
);
},
{
closed = 1;
nodes = (
(138,350,cs),
(157,273,o),
(157,266,o),
(145,235,c),
(123,182,l),
(107,139,o),
(72,259,o),
(84,318,cs),
(113,451,o),
(114,452,o)
);
},
{
closed = 1;
nodes = (
(456,354,c),
(475,277,l),
(453,214,l),
(441,179,o),
(430,157,o),
(428,164,c),
(412,211,l),
(407,230,o),
(399,250,o),
(397,254,cs),
(386,269,o),
(418,430,o),
(431,430,cs),
(434,430,o),
(446,396,o)
);
},
{
closed = 1;
nodes = (
(456,579,cs),
(395,557,o),
(379,512,o),
(375,350,cs),
(368,132,o),
(375,89,o),
(413,49,c),
(446,18,l),
(640,18,l),
(835,18,l),
(835,82,l),
(835,147,l),
(668,147,l),
(460,147,o),
(436,154,o),
(453,219,c),
(458,241,l),
(599,241,l),
(822,241,o),
(867,283,o),
(836,463,cs),
(819,566,o),
(602,633,o)
);
},
{
closed = 1;
nodes = (
(740,431,cs),
(750,412,o),
(751,379,o),
(744,358,cs),
(739,346,o),
(718,344,o),
(593,344,c),
(448,344,l),
(448,377,l),
(448,443,o),
(457,448,o),
(602,448,cs),
(720,448,o),
(731,446,o)
);
}
);
width = 878;
},
{
layerId = m01;
width = 600;
}
);
unicode = 339;
},
{
glyphname = p;
lastChange = "2026-03-12 19:02:09 +0000";
layers = (
{
layerId = m01;
width = 600;
},
{
anchors = (
{
name = bottom;
pos = (292,0);
},
{
name = top;
pos = (292,500);
}
);
layerId = "442442E3-15B6-417A-B1AA-7726B8899A2D";
shapes = (
{
closed = 1;
nodes = (
(23,579,cs),
(20,577,o),
(17,391,o),
(17,166,c),
(17,-241,l),
(116,-241,l),
(215,-241,l),
(215,-81,l),
(215,77,o),
(218,91,o),
(244,65,cs),
(308,0,o),
(482,1,o),
(532,65,cs),
(550,88,o),
(551,96,o),
(551,302,c),
(551,516,l),
(521,549,l),
(471,603,o),
(328,601,o),
(253,545,cs),
(218,519,o),
(215,520,o),
(215,555,c),
(215,585,l),
(122,585,l),
(71,585,o),
(26,583,o)
);
},
{
closed = 1;
nodes = (
(361,301,l),
(361,146,l),
(291,148,l),
(219,151,l),
(217,304,l),
(215,456,l),
(288,456,l),
(361,456,l)
);
},
{
closed = 1;
nodes = (
(144,354,c),
(163,277,l),
(145,233,l),
(137,209,o),
(129,182,o),
(129,172,cs),
(129,132,o),
(113,153,o),
(96,214,c),
(79,280,l),
(96,356,l),
(118,448,o),
(120,448,o)
);
},
{
closed = 1;
nodes = (
(482,354,c),
(500,281,l),
(481,221,l),
(462,162,l),
(450,185,l),
(443,197,o),
(436,216,o),
(434,226,c),
(426,259,l),
(419,281,o),
(451,439,o),
(459,430,cs),
(462,428,o),
(471,393,o)
);
}
);
width = 585;
}
);
unicode = 112;
},
{
glyphname = q;
lastChange = "2026-03-12 19:02:09 +0000";
layers = (
{
layerId = m01;
width = 600;
},
{
anchors = (
{
name = bottom;
pos = (284,0);
},
{
name = top;
pos = (284,500);
}
);
layerId = "442442E3-15B6-417A-B1AA-7726B8899A2D";
shapes = (
{
closed = 1;
nodes = (
(63,568,cs),
(11,534,o),
(-9,166,o),
(37,78,cs),
(76,2,o),
(227,-4,o),
(325,66,c),
(344,79,l),
(344,-81,l),
(344,-241,l),
(443,-241,l),
(543,-241,l),
(541,153,l),
(540,369,o),
(537,555,o),
(532,566,cs),
(521,596,o),
(350,592,o),
(346,562,cs),
(342,538,o),
(344,538,o),
(304,561,cs),
(255,590,o),
(103,595,o)
);
},
{
closed = 1;
nodes = (
(344,306,l),
(344,146,l),
(278,148,l),
(211,151,l),
(208,303,l),
(206,455,l),
(234,459,l),
(249,461,o),
(280,463,o),
(304,463,c),
(344,465,l)
);
},
{
closed = 1;
nodes = (
(137,356,c),
(156,281,l),
(136,218,l),
(117,159,o),
(103,138,o),
(103,168,cs),
(103,176,o),
(95,206,o),
(86,235,cs),
(71,284,o),
(70,293,o),
(80,324,cs),
(87,342,o),
(95,374,o),
(99,394,cs),
(108,448,o),
(116,439,o)
);
},
{
closed = 1;
nodes = (
(469,349,c),
(489,273,l),
(467,216,l),
(440,145,o),
(442,146,o),
(430,190,cs),
(424,211,o),
(417,233,o),
(415,237,cs),
(400,259,o),
(409,339,o),
(435,421,cs),
(441,441,o),
(447,427,o)
);
}
);
width = 568;
}
);
unicode = 113;
},
{
glyphname = r;
lastChange = "2026-03-12 19:02:10 +0000";
layers = (
{
layerId = m01;
width = 600;
},
{
anchors = (
{
name = bottom;
pos = (245,0);
},
{
name = top;
pos = (245,500);
}
);
layerId = "442442E3-15B6-417A-B1AA-7726B8899A2D";
shapes = (
{
closed = 1;
nodes = (
(22,574,cs),
(19,568,o),
(18,442,o),
(19,293,c),
(22,22,l),
(112,22,l),
(202,22,l),
(205,244,l),
(206,465,l),
(267,465,l),
(336,465,o),
(335,469,o),
(337,353,c),
(340,280,l),
(400,280,l),
(460,280,l),
(460,430,l),
(460,581,l),
(379,584,l),
(300,586,o),
(224,565,o),
(224,541,cs),
(224,537,o),
(220,534,o),
(215,534,cs),
(211,534,o),
(206,546,o),
(206,559,c),
(206,585,l),
(116,585,l),
(51,585,o),
(24,582,o)
);
},
{
closed = 1;
nodes = (
(142,342,cs),
(157,271,o),
(156,264,o),
(120,168,cs),
(102,117,o),
(75,271,o),
(90,342,cs),
(115,455,o),
(117,455,o)
);
}
);
width = 490;
}
);
unicode = 114;
},
{
glyphname = s;
lastChange = "2026-03-12 19:02:10 +0000";
layers = (
{
layerId = m01;
width = 600;
},
{
anchors = (
{
name = bottom;
pos = (253,0);
},
{
name = top;
pos = (253,500);
}
);
layerId = "442442E3-15B6-417A-B1AA-7726B8899A2D";
shapes = (
{
closed = 1;
nodes = (
(81,573,cs),
(40,555,o),
(26,516,o),
(26,411,cs),
(26,262,o),
(40,251,o),
(242,250,cs),
(394,250,o),
(404,247,o),
(404,206,cs),
(404,167,o),
(393,165,o),
(206,162,c),
(30,159,l),
(30,91,l),
(30,22,l),
(207,19,l),
(469,16,o),
(490,30,o),
(490,195,cs),
(490,319,o),
(465,335,o),
(282,336,cs),
(172,336,o),
(146,346,o),
(146,390,cs),
(146,433,o),
(152,435,o),
(320,439,c),
(477,443,l),
(477,512,l),
(477,581,l),
(292,583,l),
(153,584,o),
(101,582,o)
);
}
);
width = 516;
}
);
unicode = 115;
},
{
glyphname = germandbls;
lastChange = "2026-03-12 19:03:50 +0000";
layers = (
{
layerId = "442442E3-15B6-417A-B1AA-7726B8899A2D";
shapes = (
{
closed = 1;
nodes = (
(133,777,cs),
(29,750,o),
(17,706,o),
(17,329,c),
(17,8,l),
(114,11,l),
(211,13,l),
(213,322,l),
(216,681,o),
(202,645,o),
(335,645,cs),
(447,645,o),
(463,639,o),
(471,592,cs),
(479,536,o),
(455,510,o),
(308,419,cs),
(286,405,o),
(284,399,o),
(284,353,c),
(284,301,l),
(378,301,l),
(502,301,o),
(542,280,o),
(542,215,cs),
(542,151,o),
(516,138,o),
(386,138,c),
(283,138,l),
(286,76,l),
(288,13,l),
(404,11,l),
(602,6,o),
(654,46,o),
(654,205,cs),
(654,296,o),
(621,344,o),
(536,375,cs),
(465,401,o),
(464,409,o),
(520,436,cs),
(646,495,o),
(637,715,o),
(506,770,cs),
(474,783,o),
(180,788,o)
);
},
{
closed = 1;
nodes = (
(140,468,cs),
(156,405,o),
(160,373,o),
(155,363,cs),
(150,355,o),
(139,319,o),
(130,284,cs),
(121,249,o),
(112,226,o),
(109,233,cs),
(71,362,o),
(68,387,o),
(90,489,cs),
(110,579,o),
(113,578,o)
);
}
);
width = 680;
},
{
layerId = m01;
width = 600;
}
);
unicode = 223;
},
{
glyphname = t;
lastChange = "2026-03-12 19:02:10 +0000";
layers = (
{
layerId = m01;
width = 600;
},
{
anchors = (
{
name = bottom;
pos = (223,0);
},
{
name = top;
pos = (223,500);
}
);
layerId = "442442E3-15B6-417A-B1AA-7726B8899A2D";
shapes = (
{
closed = 1;
nodes = (
(73,685,l),
(73,586,l),
(43,584,l),
(13,581,l),
(10,523,l),
(8,465,l),
(43,465,l),
(77,465,l),
(77,270,l),
(77,9,o),
(71,18,o),
(288,18,c),
(422,18,l),
(422,47,l),
(422,62,o),
(419,93,o),
(416,116,c),
(410,155,l),
(343,155,l),
(275,155,l),
(275,310,l),
(275,465,l),
(342,465,l),
(409,465,l),
(404,522,l),
(400,581,l),
(338,584,l),
(276,586,l),
(274,682,l),
(271,779,l),
(172,781,l),
(73,784,l)
);
},
{
closed = 1;
nodes = (
(193,697,cs),
(216,639,o),
(199,508,o),
(169,508,cs),
(145,508,o),
(132,621,o),
(151,680,cs),
(169,741,o),
(175,743,o)
);
},
{
closed = 1;
nodes = (
(206,356,c),
(223,288,l),
(199,220,l),
(174,151,l),
(164,190,l),
(145,258,l),
(135,288,o),
(167,435,o),
(181,426,cs),
(184,424,o),
(195,392,o)
);
}
);
width = 447;
}
);
unicode = 116;
},
{
glyphname = u;
lastChange = "2026-03-12 19:02:10 +0000";
layers = (
{
layerId = m01;
width = 600;
},
{
anchors = (
{
name = bottom;
pos = (279,0);
},
{
name = top;
pos = (279,500);
}
);
layerId = "442442E3-15B6-417A-B1AA-7726B8899A2D";
shapes = (
{
closed = 1;
nodes = (
(28,580,cs),
(13,573,o),
(14,129,o),
(28,87,cs),
(58,3,o),
(272,-13,o),
(357,61,c),
(387,88,l),
(387,53,l),
(387,18,l),
(477,18,l),
(588,18,o),
(575,-16,o),
(581,310,c),
(585,586,l),
(488,584,l),
(391,581,l),
(389,363,l),
(387,146,l),
(303,148,l),
(219,151,l),
(215,366,l),
(211,581,l),
(125,583,l),
(77,584,o),
(34,582,o)
);
},
{
closed = 1;
nodes = (
(143,352,cs),
(158,294,o),
(162,267,o),
(156,254,cs),
(144,228,o),
(135,205,o),
(132,185,cs),
(125,147,o),
(114,158,o),
(95,220,c),
(77,284,l),
(95,362,l),
(105,405,o),
(115,438,o),
(117,436,cs),
(120,435,o),
(131,396,o)
);
},
{
closed = 1;
nodes = (
(512,344,cs),
(526,279,o),
(526,277,o),
(508,216,cs),
(489,161,o),
(473,137,o),
(473,166,cs),
(473,173,o),
(465,201,o),
(456,229,cs),
(441,276,o),
(440,284,o),
(452,323,c),
(474,405,l),
(486,450,o),
(489,444,o)
);
}
);
width = 611;
}
);
unicode = 117;
},
{
glyphname = v;
lastChange = "2026-03-12 19:02:10 +0000";
layers = (
{
layerId = m01;
width = 600;
},
{
anchors = (
{
name = bottom;
pos = (292,0);
},
{
name = top;
pos = (292,500);
}
);
layerId = "442442E3-15B6-417A-B1AA-7726B8899A2D";
shapes = (
{
closed = 1;
nodes = (
(17,301,l),
(17,18,l),
(249,18,l),
(391,18,o),
(483,21,o),
(486,26,cs),
(498,45,o),
(543,367,o),
(557,528,c),
(562,585,l),
(471,585,l),
(384,585,o),
(380,584,o),
(376,566,c),
(339,351,l),
(307,155,l),
(262,155,l),
(218,155,l),
(212,362,l),
(206,609,o),
(217,585,o),
(107,585,c),
(17,585,l)
);
},
{
closed = 1;
nodes = (
(144,354,c),
(163,277,l),
(142,214,l),
(131,178,o),
(120,156,o),
(117,164,c),
(95,224,l),
(77,271,l),
(96,351,l),
(120,448,o),
(120,448,o)
);
},
{
closed = 1;
nodes = (
(462,372,cs),
(477,298,o),
(476,274,o),
(448,211,cs),
(421,146,o),
(419,147,o),
(404,225,cs),
(394,281,o),
(400,316,o),
(435,421,cs),
(441,441,o),
(451,424,o)
);
}
);
width = 585;
}
);
unicode = 118;
},
{
glyphname = w;
lastChange = "2026-03-12 19:02:10 +0000";
layers = (
{
layerId = m01;
width = 600;
},
{
anchors = (
{
name = bottom;
pos = (430,0);
},
{
name = top;
pos = (430,500);
}
);
layerId = "442442E3-15B6-417A-B1AA-7726B8899A2D";
shapes = (
{
closed = 1;
nodes = (
(32,579,cs),
(28,577,o),
(26,448,o),
(26,295,c),
(26,18,l),
(206,18,l),
(345,18,o),
(387,20,o),
(387,29,cs),
(387,85,o),
(431,387,o),
(439,387,cs),
(451,387,o),
(454,368,o),
(474,191,c),
(495,18,l),
(664,18,l),
(834,18,l),
(834,301,l),
(834,586,l),
(742,584,l),
(649,581,l),
(644,379,l),
(637,166,l),
(637,159,o),
(623,155,o),
(599,155,c),
(560,155,l),
(556,201,l),
(539,351,o),
(525,513,o),
(525,547,c),
(525,585,l),
(431,585,l),
(337,585,l),
(332,450,l),
(322,234,l),
(317,154,l),
(272,157,l),
(228,159,l),
(223,323,l),
(216,536,l),
(215,585,l),
(126,585,l),
(77,585,o),
(34,583,o)
);
},
{
closed = 1;
nodes = (
(765,340,c),
(780,280,l),
(759,215,l),
(737,152,l),
(717,211,l),
(695,272,o),
(698,319,o),
(729,426,cs),
(735,448,o),
(742,430,o)
);
},
{
closed = 1;
nodes = (
(157,284,cs),
(158,257,o),
(151,220,o),
(143,196,cs),
(126,155,o),
(112,149,o),
(112,184,cs),
(112,195,o),
(106,211,o),
(99,221,cs),
(80,245,o),
(89,352,o),
(118,422,cs),
(126,442,o),
(157,337,o)
);
}
);
width = 860;
}
);
unicode = 119;
},
{
glyphname = x;
lastChange = "2026-03-12 19:02:10 +0000";
layers = (
{
layerId = m01;
width = 600;
},
{
anchors = (
{
name = bottom;
pos = (309,0);
},
{
name = top;
pos = (309,500);
}
);
layerId = "442442E3-15B6-417A-B1AA-7726B8899A2D";
shapes = (
{
closed = 1;
nodes = (
(0,576,cs),
(0,571,o),
(35,511,o),
(77,442,cs),
(169,296,o),
(166,322,o),
(104,217,cs),
(-18,11,o),
(-18,18,o),
(101,18,c),
(189,18,l),
(213,57,l),
(310,219,o),
(305,216,o),
(353,132,cs),
(422,9,o),
(409,18,o),
(511,18,cs),
(623,18,o),
(622,17,o),
(563,111,c),
(509,207,l),
(484,251,o),
(460,294,o),
(454,302,cs),
(446,313,o),
(460,340,o),
(523,443,cs),
(616,593,o),
(617,585,o),
(499,585,c),
(405,585,l),
(356,516,l),
(301,436,o),
(298,457,o),
(377,362,c),
(413,317,l),
(379,276,l),
(308,191,o),
(303,191,o),
(234,274,c),
(198,316,l),
(224,350,l),
(237,368,o),
(260,396,o),
(274,412,c),
(298,442,l),
(246,513,l),
(194,584,l),
(97,585,l),
(34,585,o),
(0,582,o)
);
}
);
width = 619;
}
);
unicode = 120;
},
{
glyphname = y;
lastChange = "2026-03-12 19:02:10 +0000";
layers = (
{
layerId = m01;
width = 600;
},
{
anchors = (
{
name = bottom;
pos = (301,0);
},
{
name = top;
pos = (301,500);
}
);
layerId = "442442E3-15B6-417A-B1AA-7726B8899A2D";
shapes = (
{
closed = 1;
nodes = (
(21,573,cs),
(9,545,o),
(22,91,o),
(34,73,cs),
(75,10,o),
(225,-4,o),
(320,46,c),
(378,76,l),
(380,-1,l),
(382,-43,o),
(382,-81,o),
(380,-86,cs),
(378,-91,o),
(306,-94,o),
(197,-94,c),
(17,-94,l),
(17,-167,l),
(17,-241,l),
(295,-239,l),
(572,-236,l),
(572,172,l),
(572,581,l),
(477,581,l),
(383,581,l),
(380,363,l),
(378,146,l),
(298,148,l),
(219,151,l),
(217,368,l),
(215,585,l),
(120,585,l),
(47,585,o),
(24,583,o)
);
},
{
closed = 1;
nodes = (
(151,292,cs),
(155,270,o),
(151,248,o),
(138,221,cs),
(128,200,o),
(120,178,o),
(120,173,cs),
(120,131,o),
(83,219,o),
(74,280,cs),
(73,288,o),
(101,406,o),
(109,430,cs),
(114,444,o),
(144,347,o)
);
},
{
closed = 1;
nodes = (
(499,360,cs),
(526,263,o),
(494,104,o),
(465,184,cs),
(437,256,o),
(434,287,o),
(452,362,cs),
(471,448,o),
(476,447,o)
);
}
);
width = 602;
}
);
unicode = 121;
},
{
glyphname = z;
lastChange = "2026-03-12 19:02:10 +0000";
layers = (
{
layerId = m01;
width = 600;
},
{
anchors = (
{
name = bottom;
pos = (266,0);
},
{
name = top;
pos = (266,500);
}
);
layerId = "442442E3-15B6-417A-B1AA-7726B8899A2D";
shapes = (
{
closed = 1;
nodes = (
(17,516,l),
(17,448,l),
(171,448,l),
(274,448,o),
(328,444,o),
(332,438,cs),
(345,418,o),
(305,384,o),
(238,361,cs),
(115,319,o),
(78,276,o),
(22,115,cs),
(-15,6,o),
(-40,18,o),
(255,18,c),
(508,18,l),
(508,86,l),
(508,155,l),
(334,157,l),
(159,159,l),
(151,184,l),
(138,221,o),
(152,234,o),
(225,250,cs),
(312,270,o),
(329,278,o),
(362,317,cs),
(393,354,o),
(496,534,o),
(505,565,c),
(509,585,l),
(263,585,l),
(17,585,l)
);
}
);
width = 533;
}
);
unicode = 122;
},
{
glyphname = zero;
lastChange = "2026-03-12 19:02:10 +0000";
layers = (
{
layerId = m01;
width = 600;
},
{
layerId = "442442E3-15B6-417A-B1AA-7726B8899A2D";
shapes = (
{
closed = 1;
nodes = (
(112,768,cs),
(37,731,o),
(17,652,o),
(17,395,cs),
(17,68,o),
(46,18,o),
(241,11,cs),
(409,5,o),
(466,26,o),
(507,111,c),
(529,159,l),
(529,409,l),
(529,658,l),
(508,701,l),
(466,781,o),
(219,822,o)
);
},
{
closed = 1;
nodes = (
(336,654,cs),
(358,642,o),
(362,180,o),
(341,150,cs),
(325,130,o),
(243,127,o),
(221,146,cs),
(202,160,o),
(199,634,o),
(217,652,cs),
(230,665,o),
(313,666,o)
);
},
{
closed = 1;
nodes = (
(464,479,c),
(482,381,l),
(461,308,l),
(439,230,o),
(438,231,o),
(420,333,cs),
(409,393,o),
(409,413,o),
(418,458,cs),
(425,488,o),
(430,527,o),
(430,545,cs),
(430,606,o),
(446,576,o)
);
},
{
closed = 1;
nodes = (
(134,328,cs),
(126,297,o),
(120,263,o),
(120,252,cs),
(120,241,o),
(117,233,o),
(112,233,cs),
(108,233,o),
(103,239,o),
(103,248,cs),
(103,256,o),
(95,292,o),
(87,327,cs),
(72,390,o),
(81,476,o),
(112,568,cs),
(125,605,o),
(146,376,o)
);
}
);
width = 568;
}
);
unicode = 48;
},
{
glyphname = one;
lastChange = "2026-03-12 19:02:09 +0000";
layers = (
{
layerId = m01;
width = 600;
},
{
layerId = "442442E3-15B6-417A-B1AA-7726B8899A2D";
shapes = (
{
closed = 1;
nodes = (
(32,777,cs),
(28,774,o),
(26,745,o),
(26,713,c),
(26,654,l),
(82,654,l),
(138,654,l),
(136,399,l),
(133,142,l),
(76,140,l),
(17,137,l),
(17,73,l),
(17,9,l),
(226,11,l),
(434,13,l),
(434,73,l),
(434,134,l),
(372,136,l),
(310,139,l),
(310,461,l),
(310,783,l),
(174,783,l),
(99,783,o),
(34,781,o)
);
},
{
closed = 1;
nodes = (
(237,553,cs),
(255,476,o),
(247,258,o),
(224,215,cs),
(205,182,o),
(193,500,o),
(209,580,cs),
(218,621,o),
(223,616,o)
);
}
);
width = 465;
}
);
unicode = 49;
},
{
glyphname = two;
lastChange = "2026-03-12 19:02:10 +0000";
layers = (
{
layerId = m01;
width = 600;
},
{
layerId = "442442E3-15B6-417A-B1AA-7726B8899A2D";
shapes = (
{
closed = 1;
nodes = (
(26,719,l),
(26,655,l),
(186,652,l),
(377,649,o),
(370,653,o),
(370,545,cs),
(370,457,o),
(368,456,o),
(252,456,cs),
(112,456,o),
(55,427,o),
(30,342,cs),
(17,298,o),
(11,70,o),
(22,29,c),
(28,9,l),
(259,9,l),
(490,9,l),
(490,73,l),
(490,138,l),
(321,140,l),
(151,142,l),
(148,207,l),
(143,337,o),
(152,344,o),
(304,344,cs),
(481,344,o),
(501,364,o),
(506,545,cs),
(510,680,o),
(499,719,o),
(445,758,c),
(410,783,l),
(218,783,l),
(26,783,l)
);
}
);
width = 533;
}
);
unicode = 50;
},
{
glyphname = three;
lastChange = "2026-03-12 19:02:10 +0000";
layers = (
{
layerId = m01;
width = 600;
},
{
layerId = "442442E3-15B6-417A-B1AA-7726B8899A2D";
shapes = (
{
closed = 1;
nodes = (
(29,771,cs),
(27,765,o),
(26,737,o),
(28,709,c),
(30,658,l),
(173,654,l),
(354,649,o),
(372,635,o),
(353,526,cs),
(342,470,o),
(329,461,o),
(243,456,c),
(168,452,l),
(165,399,l),
(163,344,l),
(239,344,l),
(347,344,o),
(357,336,o),
(357,243,cs),
(357,137,o),
(359,138,o),
(175,138,c),
(26,138,l),
(26,73,l),
(26,9,l),
(181,9,l),
(368,9,o),
(413,17,o),
(458,60,cs),
(540,138,o),
(515,397,o),
(425,405,cs),
(398,408,o),
(396,409,o),
(398,418,cs),
(399,422,o),
(415,434,o),
(434,443,cs),
(532,493,o),
(521,719,o),
(418,767,cs),
(372,787,o),
(37,792,o)
);
}
);
width = 533;
}
);
unicode = 51;
},
{
glyphname = four;
lastChange = "2026-03-12 19:02:09 +0000";
layers = (
{
layerId = m01;
width = 600;
},
{
layerId = "442442E3-15B6-417A-B1AA-7726B8899A2D";
shapes = (
{
closed = 1;
nodes = (
(194,773,cs),
(165,693,o),
(128,596,o),
(74,464,cs),
(14,316,o),
(9,300,o),
(9,243,c),
(9,181,l),
(138,181,l),
(267,181,l),
(267,95,l),
(267,8,l),
(355,11,l),
(443,13,l),
(446,97,l),
(448,180,l),
(480,183,l),
(512,185,l),
(514,244,l),
(517,301,l),
(483,301,l),
(447,301,l),
(446,541,l),
(443,779,l),
(320,781,l),
(226,783,o),
(197,781,o)
);
},
{
closed = 1;
nodes = (
(267,482,c),
(267,301,l),
(191,301,l),
(104,301,o),
(102,302,o),
(116,334,c),
(186,510,l),
(263,709,o),
(267,708,o)
);
},
{
closed = 1;
nodes = (
(370,498,cs),
(379,405,o),
(378,342,o),
(364,287,cs),
(347,217,o),
(323,336,o),
(329,456,cs),
(340,633,o),
(354,648,o)
);
}
);
width = 551;
}
);
unicode = 52;
},
{
glyphname = five;
lastChange = "2026-03-12 19:02:09 +0000";
layers = (
{
layerId = m01;
width = 600;
},
{
layerId = "442442E3-15B6-417A-B1AA-7726B8899A2D";
shapes = (
{
closed = 1;
nodes = (
(32,778,cs),
(28,774,o),
(26,677,o),
(26,562,c),
(26,353,l),
(154,353,l),
(282,353,l),
(305,326,l),
(346,278,o),
(329,153,o),
(281,142,cs),
(271,140,o),
(210,137,o),
(146,135,c),
(30,134,l),
(30,73,l),
(30,13,l),
(194,11,l),
(436,7,o),
(471,31,o),
(479,210,cs),
(486,331,o),
(478,374,o),
(445,408,cs),
(401,454,o),
(384,459,o),
(261,463,c),
(146,467,l),
(146,556,l),
(146,645,l),
(304,647,l),
(460,650,l),
(460,714,l),
(460,779,l),
(249,781,l),
(132,782,o),
(35,781,o)
);
}
);
width = 516;
}
);
unicode = 53;
},
{
glyphname = six;
lastChange = "2026-03-12 19:02:10 +0000";
layers = (
{
layerId = m01;
width = 600;
},
{
layerId = "442442E3-15B6-417A-B1AA-7726B8899A2D";
shapes = (
{
closed = 1;
nodes = (
(123,777,cs),
(41,761,o),
(22,683,o),
(22,387,c),
(22,151,l),
(47,99,l),
(114,-32,o),
(445,-31,o),
(506,103,cs),
(545,187,o),
(543,394,o),
(503,488,cs),
(479,544,o),
(317,571,o),
(244,532,c),
(217,517,l),
(218,584,l),
(219,650,l),
(364,652,l),
(508,654,l),
(506,717,l),
(503,779,l),
(323,780,l),
(224,781,o),
(133,779,o)
);
},
{
closed = 1;
nodes = (
(129,548,cs),
(130,538,o),
(137,499,o),
(145,462,cs),
(161,397,o),
(161,393,o),
(145,333,c),
(125,246,l),
(119,216,o),
(104,231,o),
(103,267,cs),
(103,279,o),
(95,311,o),
(86,338,cs),
(68,393,o),
(66,377,o),
(108,558,cs),
(114,582,o),
(129,575,o)
);
},
{
closed = 1;
nodes = (
(342,417,cs),
(360,405,o),
(361,398,o),
(361,288,cs),
(361,141,o),
(360,138,o),
(288,138,cs),
(217,138,o),
(215,141,o),
(215,292,cs),
(215,398,o),
(217,413,o),
(231,421,cs),
(253,435,o),
(321,432,o)
);
},
{
closed = 1;
nodes = (
(462,331,cs),
(479,264,o),
(469,175,o),
(441,166,cs),
(426,161,o),
(414,274,o),
(423,330,cs),
(434,389,o),
(446,390,o)
);
}
);
width = 559;
}
);
unicode = 54;
},
{
glyphname = seven;
lastChange = "2026-03-12 19:02:10 +0000";
layers = (
{
layerId = m01;
width = 600;
},
{
layerId = "442442E3-15B6-417A-B1AA-7726B8899A2D";
shapes = (
{
closed = 1;
nodes = (
(32,777,cs),
(30,773,o),
(25,716,o),
(22,650,cs),
(19,584,o),
(15,522,o),
(12,514,cs),
(8,500,o),
(12,498,o),
(57,501,c),
(106,504,l),
(125,569,l),
(151,658,o),
(145,654,o),
(238,654,cs),
(313,654,o),
(320,652,o),
(314,639,c),
(287,557,l),
(263,476,o),
(185,256,o),
(132,122,cs),
(112,67,o),
(95,20,o),
(95,16,cs),
(95,11,o),
(140,10,o),
(196,11,c),
(297,13,l),
(312,61,l),
(327,107,o),
(356,210,o),
(387,331,c),
(412,422,l),
(428,472,o),
(472,699,o),
(475,740,c),
(477,779,l),
(256,781,l),
(135,782,o),
(34,781,o)
);
},
{
closed = 1;
nodes = (
(374,522,cs),
(363,379,o),
(288,231,o),
(296,366,cs),
(300,448,o),
(301,454,o),
(317,495,cs),
(373,636,o),
(384,640,o)
);
}
);
width = 499;
}
);
unicode = 55;
},
{
glyphname = eight;
lastChange = "2026-03-12 19:02:09 +0000";
layers = (
{
layerId = m01;
width = 600;
},
{
layerId = "442442E3-15B6-417A-B1AA-7726B8899A2D";
shapes = (
{
closed = 1;
nodes = (
(71,759,l),
(3,694,o),
(14,503,o),
(87,445,cs),
(102,433,o),
(114,422,o),
(112,420,c),
(77,403,l),
(28,381,o),
(13,342,o),
(13,228,cs),
(13,46,o),
(47,13,o),
(241,13,cs),
(431,13,o),
(473,46,o),
(480,199,cs),
(487,336,o),
(463,397,o),
(397,410,cs),
(362,417,o),
(363,424,o),
(398,441,cs),
(477,479,o),
(491,676,o),
(420,753,c),
(396,779,l),
(246,781,l),
(96,784,l)
);
},
{
closed = 1;
nodes = (
(301,650,cs),
(332,633,o),
(347,587,o),
(336,540,cs),
(311,430,o),
(170,436,o),
(150,547,cs),
(133,636,o),
(218,693,o)
);
},
{
closed = 1;
nodes = (
(314,358,cs),
(366,336,o),
(382,270,o),
(352,192,cs),
(321,109,o),
(147,126,o),
(133,214,c),
(125,262,l),
(108,340,o),
(220,397,o)
);
}
);
width = 516;
}
);
unicode = 56;
},
{
glyphname = nine;
lastChange = "2026-03-12 19:02:09 +0000";
layers = (
{
layerId = m01;
width = 600;
},
{
layerId = "442442E3-15B6-417A-B1AA-7726B8899A2D";
shapes = (
{
closed = 1;
nodes = (
(103,777,cs),
(-17,733,o),
(-28,331,o),
(89,272,cs),
(140,247,o),
(218,250,o),
(277,278,cs),
(339,308,o),
(335,310,o),
(335,244,cs),
(335,174,o),
(329,147,o),
(313,147,cs),
(306,147,o),
(301,143,o),
(301,138,cs),
(301,133,o),
(249,129,o),
(163,129,c),
(26,129,l),
(26,68,l),
(26,8,l),
(200,11,l),
(481,15,o),
(493,31,o),
(494,422,cs),
(495,770,o),
(486,784,o),
(255,782,cs),
(178,782,o),
(110,780,o)
);
},
{
closed = 1;
nodes = (
(325,628,cs),
(342,596,o),
(336,390,o),
(318,378,cs),
(298,365,o),
(212,371,o),
(200,387,cs),
(186,405,o),
(186,614,o),
(200,637,cs),
(217,665,o),
(309,658,o)
);
},
{
closed = 1;
nodes = (
(118,546,cs),
(134,484,o),
(135,478,o),
(121,438,cs),
(93,353,o),
(52,452,o),
(74,552,cs),
(91,627,o),
(96,627,o)
);
},
{
closed = 1;
nodes = (
(427,554,cs),
(429,541,o),
(437,518,o),
(443,504,cs),
(457,476,o),
(452,436,o),
(428,349,c),
(415,306,l),
(400,357,l),
(378,430,o),
(390,612,o),
(415,587,cs),
(419,583,o),
(424,568,o)
);
}
);
width = 533;
}
);
unicode = 57;
},
{
glyphname = period;
lastChange = "2026-03-12 19:02:09 +0000";
layers = (
{
layerId = m01;
width = 600;
},
{
layerId = "442442E3-15B6-417A-B1AA-7726B8899A2D";
shapes = (
{
closed = 1;
nodes = (
(26,73,l),
(26,9,l),
(125,9,l),
(224,9,l),
(224,73,l),
(224,138,l),
(125,138,l),
(26,138,l)
);
}
);
width = 284;
}
);
unicode = 46;
},
{
glyphname = comma;
lastChange = "2026-03-12 19:02:09 +0000";
layers = (
{
layerId = m01;
width = 600;
},
{
layerId = "442442E3-15B6-417A-B1AA-7726B8899A2D";
shapes = (
{
closed = 1;
nodes = (
(52,145,c),
(40,43,l),
(25,-62,o),
(25,-62,o),
(91,-58,c),
(141,-56,l),
(161,26,l),
(171,71,o),
(180,118,o),
(181,132,c),
(181,155,l),
(116,155,l),
(71,155,o),
(52,152,o)
);
}
);
width = 224;
}
);
unicode = 44;
},
{
glyphname = colon;
lastChange = "2026-03-12 19:03:50 +0000";
layers = (
{
layerId = "442442E3-15B6-417A-B1AA-7726B8899A2D";
shapes = (
{
closed = 1;
nodes = (
(26,73,l),
(26,9,l),
(125,9,l),
(224,9,l),
(224,73,l),
(224,138,l),
(125,138,l),
(26,138,l)
);
},
{
closed = 1;
nodes = (
(26,435,l),
(26,371,l),
(125,371,l),
(224,371,l),
(224,435,l),
(224,500,l),
(125,500,l),
(26,500,l)
);
}
);
width = 284;
},
{
layerId = m01;
width = 600;
}
);
unicode = 58;
},
{
glyphname = semicolon;
lastChange = "2026-03-12 19:03:50 +0000";
layers = (
{
layerId = "442442E3-15B6-417A-B1AA-7726B8899A2D";
shapes = (
{
closed = 1;
nodes = (
(52,145,c),
(40,43,l),
(25,-62,o),
(25,-62,o),
(91,-58,c),
(141,-56,l),
(161,26,l),
(171,71,o),
(180,118,o),
(181,132,c),
(181,155,l),
(116,155,l),
(71,155,o),
(52,152,o)
);
},
{
closed = 1;
nodes = (
(26,435,l),
(26,371,l),
(125,371,l),
(224,371,l),
(224,435,l),
(224,500,l),
(125,500,l),
(26,500,l)
);
}
);
width = 224;
},
{
layerId = m01;
width = 600;
}
);
unicode = 59;
},
{
glyphname = exclam;
lastChange = "2026-03-12 19:03:50 +0000";
layers = (
{
layerId = "442442E3-15B6-417A-B1AA-7726B8899A2D";
shapes = (
{
closed = 1;
nodes = (
(28,769,cs),
(19,745,o),
(33,516,o),
(51,392,cs),
(80,194,o),
(71,215,o),
(124,215,c),
(169,215,l),
(180,278,l),
(206,440,o),
(224,614,o),
(224,694,c),
(224,783,l),
(129,783,l),
(50,783,o),
(33,781,o)
);
},
{
closed = 1;
nodes = (
(134,702,cs),
(135,694,o),
(143,669,o),
(151,645,cs),
(168,600,o),
(169,608,o),
(137,488,cs),
(125,442,o),
(117,453,o),
(99,538,cs),
(83,613,o),
(83,610,o),
(109,708,cs),
(114,727,o),
(131,724,o)
);
},
{
closed = 1;
nodes = (
(26,73,l),
(26,9,l),
(125,9,l),
(224,9,l),
(224,73,l),
(224,138,l),
(125,138,l),
(26,138,l)
);
}
);
width = 284;
},
{
layerId = m01;
width = 600;
}
);
unicode = 33;
},
{
glyphname = exclamdown;
lastChange = "2026-03-12 19:03:50 +0000";
layers = (
{
layerId = "442442E3-15B6-417A-B1AA-7726B8899A2D";
shapes = (
{
closed = 1;
nodes = (
(215,23,cs),
(224,47,o),
(210,276,o),
(192,400,cs),
(163,598,o),
(172,577,o),
(119,577,c),
(74,577,l),
(63,514,l),
(37,352,o),
(19,178,o),
(19,98,c),
(19,9,l),
(114,9,l),
(193,9,o),
(210,11,o)
);
},
{
closed = 1;
nodes = (
(109,90,cs),
(108,98,o),
(100,123,o),
(92,147,cs),
(75,192,o),
(74,184,o),
(106,304,cs),
(118,350,o),
(126,339,o),
(144,254,cs),
(160,179,o),
(160,182,o),
(134,84,cs),
(129,65,o),
(112,68,o)
);
},
{
closed = 1;
nodes = (
(217,719,l),
(217,783,l),
(118,783,l),
(19,783,l),
(19,719,l),
(19,654,l),
(118,654,l),
(217,654,l)
);
}
);
width = 284;
},
{
layerId = m01;
width = 600;
}
);
unicode = 161;
},
{
glyphname = question;
lastChange = "2026-03-12 19:03:50 +0000";
layers = (
{
layerId = "442442E3-15B6-417A-B1AA-7726B8899A2D";
shapes = (
{
closed = 1;
nodes = (
(52,759,l),
(26,733,o),
(26,732,o),
(26,633,c),
(26,534,l),
(90,534,l),
(155,534,l),
(155,575,l),
(155,634,o),
(168,648,o),
(231,652,cs),
(366,662,o),
(357,524,o),
(218,473,cs),
(138,444,o),
(120,411,o),
(120,295,c),
(120,214,l),
(179,217,l),
(237,220,l),
(239,286,l),
(242,361,o),
(243,362,o),
(313,387,cs),
(421,424,o),
(438,454,o),
(439,601,cs),
(439,770,o),
(430,778,o),
(226,781,c),
(77,785,l)
);
},
{
closed = 1;
nodes = (
(88,76,l),
(90,13,l),
(183,11,l),
(275,8,l),
(275,73,l),
(275,138,l),
(181,138,l),
(85,138,l)
);
}
);
width = 473;
},
{
layerId = m01;
width = 600;
}
);
unicode = 63;
},
{
glyphname = questiondown;
lastChange = "2026-03-12 19:03:50 +0000";
layers = (
{
layerId = "442442E3-15B6-417A-B1AA-7726B8899A2D";
shapes = (
{
closed = 1;
nodes = (
(413,34,l),
(439,60,o),
(439,61,o),
(439,160,c),
(439,259,l),
(375,259,l),
(310,259,l),
(310,218,l),
(310,159,o),
(297,145,o),
(234,141,cs),
(99,131,o),
(108,269,o),
(247,320,cs),
(327,349,o),
(345,382,o),
(345,498,c),
(345,579,l),
(286,576,l),
(228,573,l),
(226,507,l),
(223,432,o),
(222,431,o),
(152,406,cs),
(44,369,o),
(27,339,o),
(26,192,cs),
(26,23,o),
(35,15,o),
(239,12,c),
(388,8,l)
);
},
{
closed = 1;
nodes = (
(377,717,l),
(375,780,l),
(282,782,l),
(190,785,l),
(190,720,l),
(190,655,l),
(284,655,l),
(380,655,l)
);
}
);
width = 473;
},
{
layerId = m01;
width = 600;
}
);
unicode = 191;
},
{
glyphname = asterisk;
lastChange = "2026-03-12 19:03:50 +0000";
layers = (
{
layerId = "442442E3-15B6-417A-B1AA-7726B8899A2D";
shapes = (
{
closed = 1;
nodes = (
(241,824,cs),
(241,813,o),
(250,766,o),
(262,719,cs),
(288,614,o),
(286,609,o),
(209,639,cs),
(35,707,o),
(46,707,o),
(38,630,c),
(32,579,l),
(99,574,l),
(136,571,o),
(185,568,o),
(207,568,cs),
(268,568,o),
(266,559,o),
(182,485,cs),
(139,448,o),
(105,414,o),
(105,409,cs),
(104,389,o),
(206,317,o),
(212,333,cs),
(293,571,o),
(324,575,o),
(416,350,c),
(429,319,l),
(481,359,l),
(532,400,l),
(514,421,l),
(503,431,o),
(465,467,o),
(428,498,cs),
(343,569,o),
(341,565,o),
(475,571,cs),
(538,575,o),
(591,580,o),
(593,582,cs),
(597,586,o),
(579,688,o),
(573,694,cs),
(571,697,o),
(521,681,o),
(463,660,cs),
(335,614,o),
(337,612,o),
(366,724,cs),
(378,773,o),
(389,819,o),
(390,826,cs),
(391,836,o),
(377,840,o),
(317,842,cs),
(243,844,o),
(241,843,o)
);
}
);
width = 654;
},
{
layerId = m01;
width = 600;
}
);
unicode = 42;
},
{
glyphname = numbersign;
lastChange = "2026-03-12 19:03:50 +0000";
layers = (
{
layerId = "442442E3-15B6-417A-B1AA-7726B8899A2D";
shapes = (
{
closed = 1;
nodes = (
(250,725,l),
(236,639,l),
(231,611,l),
(159,611,l),
(88,611,l),
(82,566,l),
(79,541,o),
(74,514,o),
(72,506,cs),
(68,492,o),
(75,491,o),
(138,491,c),
(208,491,l),
(204,446,l),
(201,421,o),
(194,378,o),
(188,351,c),
(178,301,l),
(111,301,l),
(34,301,o),
(34,301,o),
(28,232,c),
(23,181,l),
(89,181,l),
(156,181,l),
(150,149,l),
(133,63,l),
(122,9,l),
(184,9,l),
(247,9,l),
(262,95,l),
(277,181,l),
(365,181,l),
(453,181,l),
(438,102,l),
(420,6,o),
(419,9,o),
(481,9,cs),
(542,9,o),
(545,12,o),
(559,96,cs),
(573,183,o),
(570,180,o),
(649,183,c),
(718,185,l),
(718,241,l),
(718,297,l),
(655,300,l),
(601,302,o),
(594,304,o),
(597,317,c),
(606,366,l),
(620,445,l),
(629,490,l),
(695,492,l),
(761,495,l),
(761,551,l),
(761,607,l),
(708,609,l),
(678,611,o),
(654,614,o),
(654,618,c),
(667,697,l),
(682,783,o),
(680,785,o),
(611,781,c),
(556,779,l),
(543,697,l),
(529,615,l),
(440,613,l),
(353,610,o),
(352,610,o),
(356,630,cs),
(366,670,o),
(378,752,o),
(378,768,cs),
(378,781,o),
(371,783,o),
(319,783,c),
(260,783,l)
);
},
{
closed = 1;
nodes = (
(504,467,l),
(487,374,l),
(474,304,l),
(473,302,o),
(434,301,o),
(387,301,cs),
(291,301,o),
(295,298,o),
(310,368,cs),
(314,390,o),
(319,423,o),
(321,440,cs),
(327,490,o),
(329,491,o),
(423,491,c),
(509,491,l)
);
}
);
width = 791;
},
{
layerId = m01;
width = 600;
}
);
unicode = 35;
},
{
glyphname = hyphen;
lastChange = "2026-03-12 19:02:09 +0000";
layers = (
{
layerId = m01;
width = 600;
},
{
layerId = "442442E3-15B6-417A-B1AA-7726B8899A2D";
shapes = (
{
closed = 1;
nodes = (
(17,310,l),
(17,250,l),
(151,250,l),
(284,250,l),
(284,310,l),
(284,370,l),
(151,370,l),
(17,370,l)
);
}
);
width = 318;
}
);
unicode = 45;
},
{
glyphname = parenleft;
lastChange = "2026-03-12 19:03:50 +0000";
layers = (
{
layerId = "442442E3-15B6-417A-B1AA-7726B8899A2D";
shapes = (
{
closed = 1;
nodes = (
(169,879,l),
(-15,599,o),
(-34,253,o),
(123,-19,cs),
(164,-91,o),
(168,-93,o),
(222,-65,c),
(265,-44,l),
(218,49,l),
(103,282,o),
(109,513,o),
(237,756,cs),
(274,826,o),
(283,852,o),
(268,852,cs),
(264,852,o),
(245,866,o),
(226,882,c),
(191,912,l)
);
}
);
width = 344;
},
{
layerId = m01;
width = 600;
}
);
unicode = 40;
},
{
glyphname = parenright;
lastChange = "2026-03-12 19:03:50 +0000";
layers = (
{
layerId = "442442E3-15B6-417A-B1AA-7726B8899A2D";
shapes = (
{
closed = 1;
nodes = (
(80,-60,l),
(264,220,o),
(283,566,o),
(126,838,cs),
(85,910,o),
(81,912,o),
(27,884,c),
(-16,863,l),
(31,770,l),
(146,537,o),
(140,306,o),
(12,63,cs),
(-25,-7,o),
(-34,-33,o),
(-19,-33,cs),
(-15,-33,o),
(4,-47,o),
(23,-63,c),
(58,-93,l)
);
}
);
width = 344;
},
{
layerId = m01;
width = 600;
}
);
unicode = 41;
},
{
glyphname = braceleft;
lastChange = "2026-03-12 19:03:50 +0000";
layers = (
{
layerId = "442442E3-15B6-417A-B1AA-7726B8899A2D";
shapes = (
{
closed = 1;
nodes = (
(216,913,cs),
(104,874,o),
(92,848,o),
(86,650,cs),
(81,482,o),
(76,463,o),
(34,449,cs),
(-6,435,o),
(-4,357,o),
(37,331,cs),
(75,307,o),
(84,264,o),
(85,105,cs),
(86,-99,o),
(134,-155,o),
(294,-144,c),
(331,-142,l),
(334,-93,l),
(336,-43,l),
(303,-38,l),
(230,-26,o),
(220,-8,o),
(214,127,cs),
(207,264,o),
(194,313,o),
(150,355,cs),
(115,387,o),
(114,391,o),
(141,403,cs),
(188,424,o),
(211,498,o),
(213,637,cs),
(217,810,o),
(225,826,o),
(309,826,cs),
(338,826,o),
(342,835,o),
(337,889,c),
(334,929,l),
(298,929,l),
(279,928,o),
(242,922,o)
);
}
);
width = 335;
},
{
layerId = m01;
width = 600;
}
);
unicode = 123;
},
{
glyphname = braceright;
lastChange = "2026-03-12 19:03:50 +0000";
layers = (
{
layerId = "442442E3-15B6-417A-B1AA-7726B8899A2D";
shapes = (
{
closed = 1;
nodes = (
(120,-139,cs),
(232,-100,o),
(244,-74,o),
(250,124,cs),
(255,292,o),
(260,311,o),
(302,325,cs),
(342,339,o),
(340,417,o),
(299,443,cs),
(261,467,o),
(252,510,o),
(251,669,cs),
(250,873,o),
(202,929,o),
(42,918,c),
(5,916,l),
(2,867,l),
(0,817,l),
(33,812,l),
(106,800,o),
(116,782,o),
(122,647,cs),
(129,510,o),
(142,461,o),
(186,419,cs),
(221,387,o),
(222,383,o),
(195,371,cs),
(148,350,o),
(125,276,o),
(123,137,cs),
(119,-36,o),
(111,-52,o),
(27,-52,cs),
(-2,-52,o),
(-6,-61,o),
(-1,-115,c),
(2,-155,l),
(38,-155,l),
(57,-154,o),
(94,-148,o)
);
}
);
width = 335;
},
{
layerId = m01;
width = 600;
}
);
unicode = 125;
},
{
glyphname = quotedblleft;
lastChange = "2026-03-12 19:03:50 +0000";
layers = (
{
layerId = "442442E3-15B6-417A-B1AA-7726B8899A2D";
shapes = (
{
closed = 1;
nodes = (
(146,662,c),
(158,764,l),
(173,869,o),
(173,869,o),
(107,865,c),
(57,863,l),
(37,781,l),
(27,736,o),
(18,689,o),
(17,675,c),
(17,652,l),
(82,652,l),
(127,652,o),
(146,655,o)
);
},
{
closed = 1;
nodes = (
(327,662,c),
(339,764,l),
(354,869,o),
(354,869,o),
(288,865,c),
(238,863,l),
(218,781,l),
(208,736,o),
(199,689,o),
(198,675,c),
(198,652,l),
(263,652,l),
(308,652,o),
(327,655,o)
);
}
);
width = 387;
},
{
layerId = m01;
width = 600;
}
);
unicode = 8220;
},
{
glyphname = quotedblright;
lastChange = "2026-03-12 19:03:50 +0000";
layers = (
{
layerId = "442442E3-15B6-417A-B1AA-7726B8899A2D";
shapes = (
{
closed = 1;
nodes = (
(44,859,c),
(32,757,l),
(17,652,o),
(17,652,o),
(83,656,c),
(133,658,l),
(153,740,l),
(163,785,o),
(172,832,o),
(173,846,c),
(173,869,l),
(108,869,l),
(63,869,o),
(44,866,o)
);
},
{
closed = 1;
nodes = (
(225,859,c),
(213,757,l),
(198,652,o),
(198,652,o),
(264,656,c),
(314,658,l),
(334,740,l),
(344,785,o),
(353,832,o),
(354,846,c),
(354,869,l),
(289,869,l),
(244,869,o),
(225,866,o)
);
}
);
width = 387;
},
{
layerId = m01;
width = 600;
}
);
unicode = 8221;
},
{
glyphname = quoteleft;
lastChange = "2026-03-12 19:03:50 +0000";
layers = (
{
layerId = "442442E3-15B6-417A-B1AA-7726B8899A2D";
shapes = (
{
closed = 1;
nodes = (
(146,662,c),
(158,764,l),
(173,869,o),
(173,869,o),
(107,865,c),
(57,863,l),
(37,781,l),
(27,736,o),
(18,689,o),
(17,675,c),
(17,652,l),
(82,652,l),
(127,652,o),
(146,655,o)
);
}
);
width = 206;
},
{
layerId = m01;
width = 600;
}
);
unicode = 8216;
},
{
glyphname = quotedbl;
lastChange = "2026-03-12 19:03:50 +0000";
layers = (
{
layerId = "442442E3-15B6-417A-B1AA-7726B8899A2D";
shapes = (
{
closed = 1;
nodes = (
(23,820,l),
(55,578,o),
(54,581,o),
(80,578,cs),
(94,577,o),
(105,580,o),
(107,587,cs),
(111,603,o),
(147,837,o),
(146,850,cs),
(146,857,o),
(127,861,o),
(82,861,c),
(17,861,l)
);
},
{
closed = 1;
nodes = (
(227,842,cs),
(230,830,o),
(238,769,o),
(246,706,cs),
(262,578,o),
(264,571,o),
(296,580,cs),
(316,585,o),
(318,590,o),
(318,622,cs),
(318,642,o),
(324,695,o),
(331,740,cs),
(351,869,o),
(354,861,o),
(283,861,cs),
(224,861,o),
(222,860,o)
);
}
);
width = 387;
},
{
layerId = m01;
width = 600;
}
);
unicode = 34;
},
{
glyphname = quotesingle;
lastChange = "2026-03-12 19:03:50 +0000";
layers = (
{
layerId = "442442E3-15B6-417A-B1AA-7726B8899A2D";
shapes = (
{
closed = 1;
nodes = (
(44,859,c),
(32,757,l),
(17,652,o),
(17,652,o),
(83,656,c),
(133,658,l),
(153,740,l),
(163,785,o),
(172,832,o),
(173,846,c),
(173,869,l),
(108,869,l),
(63,869,o),
(44,866,o)
);
}
);
width = 206;
},
{
layerId = m01;
width = 600;
}
);
unicode = 39;
},
{
glyphname = at;
lastChange = "2026-03-12 19:03:50 +0000";
layers = (
{
layerId = "442442E3-15B6-417A-B1AA-7726B8899A2D";
shapes = (
{
closed = 1;
nodes = (
(366,757,cs),
(-90,659,o),
(-115,-8,o),
(332,-124,cs),
(445,-153,o),
(660,-113,o),
(735,-50,cs),
(742,-44,o),
(696,46,o),
(688,41,cs),
(368,-146,o),
(50,50,o),
(121,389,cs),
(201,766,o),
(744,746,o),
(744,366,cs),
(744,258,o),
(730,233,o),
(672,233,cs),
(610,233,o),
(606,240,o),
(606,374,c),
(606,486,l),
(499,489,l),
(272,495,o),
(275,498,o),
(275,290,c),
(275,149,l),
(302,143,l),
(369,130,o),
(486,150,o),
(496,178,cs),
(502,193,o),
(533,193,o),
(533,178,cs),
(533,147,o),
(569,138,o),
(673,138,c),
(774,138,l),
(791,166,l),
(969,453,o),
(698,830,o)
);
},
{
closed = 1;
nodes = (
(489,321,l),
(491,233,l),
(431,233,l),
(360,233,o),
(361,232,o),
(361,327,cs),
(361,408,o),
(367,414,o),
(439,411,c),
(486,409,l)
);
}
);
width = 877;
},
{
layerId = m01;
width = 600;
}
);
unicode = 64;
},
{
glyphname = ampersand;
lastChange = "2026-03-12 19:03:50 +0000";
layers = (
{
layerId = "442442E3-15B6-417A-B1AA-7726B8899A2D";
shapes = (
{
closed = 1;
nodes = (
(120,781,cs),
(49,744,o),
(39,608,o),
(100,502,c),
(136,440,l),
(112,430,l),
(11,388,o),
(-15,149,o),
(73,65,cs),
(126,12,o),
(264,0,o),
(342,41,cs),
(378,60,o),
(404,54,o),
(404,25,cs),
(404,21,o),
(434,18,o),
(469,18,cs),
(546,18,o),
(547,20,o),
(499,94,cs),
(458,157,o),
(458,152,o),
(486,199,cs),
(517,253,o),
(519,382,o),
(489,391,cs),
(440,404,o),
(430,399,o),
(430,360,cs),
(430,324,o),
(418,261,o),
(410,253,cs),
(403,245,o),
(378,260,o),
(378,272,cs),
(378,279,o),
(375,284,o),
(370,284,cs),
(366,284,o),
(361,290,o),
(361,297,cs),
(361,304,o),
(359,310,o),
(354,310,cs),
(351,310,o),
(343,321,o),
(337,334,cs),
(332,348,o),
(292,406,o),
(249,464,cs),
(147,604,o),
(138,658,o),
(215,681,cs),
(297,706,o),
(335,668,o),
(335,562,c),
(335,516,l),
(378,516,l),
(422,516,l),
(422,602,l),
(422,695,o),
(409,734,o),
(370,770,cs),
(346,792,o),
(157,800,o)
);
},
{
closed = 1;
nodes = (
(237,295,cs),
(263,258,o),
(293,213,o),
(303,195,c),
(320,161,l),
(300,146,l),
(273,125,o),
(197,124,o),
(163,144,cs),
(120,169,o),
(130,338,o),
(174,356,c),
(187,361,l),
(188,362,o),
(210,331,o)
);
}
);
width = 559;
},
{
layerId = m01;
width = 600;
}
);
unicode = 38;
},
{
glyphname = dollar;
lastChange = "2026-03-12 19:03:50 +0000";
layers = (
{
layerId = "442442E3-15B6-417A-B1AA-7726B8899A2D";
shapes = (
{
closed = 1;
nodes = (
(239,859,l),
(237,787,l),
(178,782,l),
(68,773,o),
(34,725,o),
(34,577,cs),
(34,382,o),
(63,353,o),
(260,346,cs),
(411,341,o),
(409,343,o),
(408,245,cs),
(406,142,o),
(400,138,o),
(278,138,cs),
(167,138,o),
(146,152,o),
(146,222,cs),
(146,271,o),
(141,276,o),
(77,276,c),
(34,276,l),
(34,190,l),
(34,62,o),
(74,18,o),
(187,18,c),
(240,18,l),
(243,-49,l),
(245,-116,l),
(297,-116,l),
(348,-116,l),
(351,-49,l),
(354,18,l),
(392,18,l),
(500,18,o),
(551,85,o),
(551,228,cs),
(550,394,o),
(508,432,o),
(323,439,cs),
(167,444,o),
(143,469,o),
(167,598,cs),
(188,706,o),
(413,690,o),
(413,581,c),
(413,542,l),
(473,542,l),
(533,542,l),
(534,571,l),
(534,585,o),
(536,618,o),
(538,641,cs),
(547,730,o),
(508,774,o),
(413,782,c),
(357,787,l),
(353,856,l),
(348,925,l),
(295,928,l),
(242,930,l)
);
}
);
width = 585;
},
{
layerId = m01;
width = 600;
}
);
unicode = 36;
},
{
glyphname = euro;
lastChange = "2026-03-12 19:03:50 +0000";
layers = (
{
layerId = "442442E3-15B6-417A-B1AA-7726B8899A2D";
shapes = (
{
closed = 1;
nodes = (
(156,764,cs),
(93,731,o),
(70,684,o),
(69,588,c),
(69,542,l),
(38,542,l),
(8,542,l),
(10,498,l),
(13,454,o),
(14,452,o),
(39,452,cs),
(64,451,o),
(65,450,o),
(67,403,c),
(70,354,l),
(41,351,l),
(-3,347,o),
(-3,264,o),
(41,260,cs),
(69,258,o),
(69,257,o),
(69,212,cs),
(69,44,o),
(128,6,o),
(383,11,c),
(538,13,l),
(538,69,l),
(538,125,l),
(426,127,l),
(267,130,o),
(249,140,o),
(249,224,c),
(249,258,l),
(374,258,l),
(499,258,l),
(499,306,l),
(499,353,l),
(374,353,l),
(249,353,l),
(249,400,l),
(249,447,l),
(372,449,l),
(495,452,l),
(497,498,l),
(500,542,l),
(380,542,l),
(247,542,o),
(245,543,o),
(258,598,cs),
(271,655,o),
(279,658,o),
(415,663,c),
(538,667,l),
(538,723,l),
(538,779,l),
(366,781,l),
(201,783,o),
(192,782,o)
);
},
{
closed = 1;
nodes = (
(182,461,cs),
(191,417,o),
(171,299,o),
(157,313,cs),
(143,328,o),
(130,436,o),
(138,468,cs),
(156,532,o),
(166,530,o)
);
}
);
width = 594;
},
{
layerId = m01;
width = 600;
}
);
unicode = 8364;
},
{
glyphname = sterling;
lastChange = "2026-03-12 19:03:50 +0000";
layers = (
{
layerId = "442442E3-15B6-417A-B1AA-7726B8899A2D";
shapes = (
{
closed = 1;
nodes = (
(217,770,cs),
(151,741,o),
(129,681,o),
(129,523,c),
(129,413,l),
(86,413,l),
(43,413,l),
(43,362,l),
(43,310,l),
(86,310,l),
(129,310,l),
(129,224,l),
(129,138,l),
(73,138,l),
(17,138,l),
(17,73,l),
(17,9,l),
(299,11,l),
(581,13,l),
(581,73,l),
(581,134,l),
(443,138,l),
(341,141,o),
(305,145,o),
(306,153,c),
(309,237,l),
(310,310,l),
(409,310,l),
(508,310,l),
(508,362,l),
(508,413,l),
(409,413,l),
(310,413,l),
(308,467,l),
(305,546,o),
(308,638,o),
(313,651,cs),
(317,660,o),
(348,663,o),
(452,663,c),
(586,663,l),
(583,721,l),
(581,779,l),
(413,781,l),
(281,782,o),
(239,780,o)
);
},
{
closed = 1;
nodes = (
(237,416,cs),
(209,344,o),
(173,429,o),
(195,514,cs),
(214,586,o),
(217,586,o),
(235,517,cs),
(251,458,o),
(251,454,o)
);
},
{
closed = 1;
nodes = (
(240,257,cs),
(251,211,o),
(243,146,o),
(225,134,cs),
(197,117,o),
(182,233,o),
(205,287,cs),
(218,319,o),
(227,312,o)
);
}
);
width = 619;
},
{
layerId = m01;
width = 600;
}
);
unicode = 163;
},
{
glyphname = plus;
lastChange = "2026-03-12 19:03:50 +0000";
layers = (
{
layerId = "442442E3-15B6-417A-B1AA-7726B8899A2D";
shapes = (
{
closed = 1;
nodes = (
(206,534,l),
(206,439,l),
(116,439,l),
(26,439,l),
(26,383,l),
(26,327,l),
(116,327,l),
(206,327,l),
(206,237,l),
(206,147,l),
(258,147,l),
(310,147,l),
(310,237,l),
(310,326,l),
(398,329,l),
(486,331,l),
(489,386,l),
(491,439,l),
(400,439,l),
(310,439,l),
(310,534,l),
(310,628,l),
(258,628,l),
(206,628,l)
);
}
);
width = 525;
},
{
layerId = m01;
width = 600;
}
);
unicode = 43;
},
{
glyphname = asciitilde;
lastChange = "2026-03-12 19:03:50 +0000";
layers = (
{
layerId = "442442E3-15B6-417A-B1AA-7726B8899A2D";
shapes = (
{
closed = 1;
nodes = (
(442,813,cs),
(437,811,o),
(433,804,o),
(433,798,cs),
(433,737,o),
(388,712,o),
(339,745,cs),
(283,781,o),
(274,785,o),
(244,785,cs),
(208,785,o),
(191,773,o),
(134,699,cs),
(78,627,o),
(77,631,o),
(149,631,cs),
(205,631,o),
(209,631,o),
(215,651,cs),
(224,689,o),
(247,704,o),
(276,688,cs),
(367,639,o),
(388,631,o),
(412,631,cs),
(463,631,o),
(495,668,o),
(519,757,c),
(534,810,l),
(492,813,l),
(469,814,o),
(446,815,o)
);
}
);
width = 602;
},
{
layerId = m01;
width = 600;
}
);
unicode = 126;
},
{
glyphname = percent;
lastChange = "2026-03-12 19:03:50 +0000";
layers = (
{
layerId = "442442E3-15B6-417A-B1AA-7726B8899A2D";
shapes = (
{
closed = 1;
nodes = (
(446,604,l),
(177,245,o),
(26,34,o),
(26,20,cs),
(26,12,o),
(42,9,o),
(84,9,c),
(142,9,l),
(189,75,l),
(231,134,o),
(494,485,o),
(528,529,cs),
(557,565,o),
(688,750,o),
(697,766,cs),
(705,782,o),
(704,783,o),
(643,783,c),
(579,783,l)
);
},
{
closed = 1;
nodes = (
(89,749,cs),
(0,703,o),
(-4,525,o),
(83,482,cs),
(188,430,o),
(288,491,o),
(287,611,cs),
(286,736,o),
(192,801,o)
);
},
{
closed = 1;
nodes = (
(194,645,cs),
(208,617,o),
(203,559,o),
(186,559,cs),
(181,559,o),
(168,557,o),
(157,554,cs),
(132,547,o),
(103,578,o),
(103,613,cs),
(103,671,o),
(168,694,o)
);
},
{
closed = 1;
nodes = (
(477,280,c),
(442,267,l),
(412,264,o),
(403,100,o),
(430,56,cs),
(502,-59,o),
(675,8,o),
(675,151,cs),
(674,273,o),
(598,323,o)
);
},
{
closed = 1;
nodes = (
(581,147,l),
(581,99,l),
(542,99,l),
(504,99,o),
(503,100,o),
(501,128,cs),
(495,186,o),
(504,199,o),
(545,196,c),
(581,194,l)
);
}
);
width = 723;
},
{
layerId = m01;
width = 600;
}
);
unicode = 37;
},
{
glyphname = dieresis;
lastChange = "2026-03-12 19:03:50 +0000";
layers = (
{
anchors = (
{
name = _top;
pos = (279,500);
}
);
layerId = "442442E3-15B6-417A-B1AA-7726B8899A2D";
shapes = (
{
closed = 1;
nodes = (
(96,774,cs),
(93,767,o),
(92,733,o),
(94,698,c),
(96,634,l),
(169,632,l),
(255,629,o),
(252,627,o),
(249,715,c),
(245,785,l),
(173,785,l),
(120,785,o),
(99,781,o)
);
},
{
closed = 1;
nodes = (
(317,710,l),
(320,634,l),
(393,634,l),
(466,634,l),
(466,707,l),
(466,781,l),
(391,783,l),
(315,786,l)
);
}
);
width = 611;
},
{
layerId = m01;
width = 600;
}
);
unicode = 168;
},
{
glyphname = dotaccent;
lastChange = "2026-03-12 19:03:50 +0000";
layers = (
{
anchors = (
{
name = _top;
pos = (116,500);
}
);
layerId = "442442E3-15B6-417A-B1AA-7726B8899A2D";
shapes = (
{
closed = 1;
nodes = (
(17,723,l),
(17,654,l),
(116,654,l),
(215,654,l),
(215,723,l),
(215,792,l),
(116,792,l),
(17,792,l)
);
}
);
width = 298;
},
{
layerId = m01;
width = 600;
}
);
unicode = 729;
},
{
glyphname = grave;
lastChange = "2026-03-12 19:03:50 +0000";
layers = (
{
anchors = (
{
name = _top;
pos = (262,500);
}
);
layerId = "442442E3-15B6-417A-B1AA-7726B8899A2D";
shapes = (
{
closed = 1;
nodes = (
(322,844,l),
(249,844,o),
(167,844,o),
(167,844,c),
(206,785,l),
(223,761,l),
(242,724,o),
(250,703,o),
(266,663,cs),
(341,663,o),
(429,663,o),
(427,653,c),
(364,769,l)
);
}
);
width = 525;
},
{
layerId = m01;
width = 600;
}
);
unicode = 96;
},
{
glyphname = acute;
lastChange = "2026-03-12 19:03:50 +0000";
layers = (
{
anchors = (
{
name = _top;
pos = (298,500);
}
);
layerId = "442442E3-15B6-417A-B1AA-7726B8899A2D";
shapes = (
{
closed = 1;
nodes = (
(232,769,l),
(169,653,o),
(167,663,o),
(255,663,c),
(330,663,l),
(346,703,l),
(354,724,o),
(373,761,o),
(390,785,cs),
(429,844,o),
(429,844,o),
(347,844,c),
(274,844,l)
);
}
);
width = 525;
},
{
layerId = m01;
width = 600;
}
);
unicode = 180;
},
{
glyphname = circumflex;
lastChange = "2026-03-12 19:03:50 +0000";
layers = (
{
anchors = (
{
name = _top;
pos = (271,500);
}
);
layerId = "442442E3-15B6-417A-B1AA-7726B8899A2D";
shapes = (
{
closed = 1;
nodes = (
(140,734,l),
(87,628,o),
(87,627,o),
(154,627,cs),
(209,627,o),
(227,638,o),
(242,680,cs),
(254,716,o),
(273,710,o),
(293,666,c),
(310,627,l),
(378,627,l),
(455,627,o),
(456,629,o),
(423,675,cs),
(409,693,o),
(386,735,o),
(371,767,c),
(344,825,l),
(264,825,l),
(184,825,l)
);
}
);
width = 551;
},
{
layerId = m01;
width = 600;
}
);
unicode = 710;
},
{
glyphname = caron;
lastChange = "2026-03-12 19:03:50 +0000";
layers = (
{
anchors = (
{
name = _top;
pos = (253,500);
}
);
layerId = "442442E3-15B6-417A-B1AA-7726B8899A2D";
shapes = (
{
closed = 1;
nodes = (
(62,779,cs),
(62,772,o),
(72,759,o),
(83,747,cs),
(95,737,o),
(119,705,o),
(136,678,c),
(168,627,l),
(251,627,l),
(336,627,l),
(381,698,l),
(444,795,o),
(445,790,o),
(368,790,c),
(303,790,l),
(286,756,l),
(275,734,o),
(262,722,o),
(251,722,cs),
(240,722,o),
(228,734,o),
(217,756,c),
(200,790,l),
(131,790,l),
(79,790,o),
(62,788,o)
);
}
);
width = 516;
},
{
layerId = m01;
width = 600;
}
);
unicode = 711;
},
{
glyphname = ring;
lastChange = "2026-03-12 19:03:50 +0000";
layers = (
{
anchors = (
{
name = _top;
pos = (281,500);
}
);
layerId = "442442E3-15B6-417A-B1AA-7726B8899A2D";
shapes = (
{
closed = 1;
nodes = (
(187,959,cs),
(100,900,o),
(96,756,o),
(179,704,cs),
(302,627,o),
(466,765,o),
(402,890,cs),
(359,973,o),
(256,1007,o)
);
},
{
closed = 1;
nodes = (
(296,864,cs),
(313,847,o),
(309,807,o),
(288,797,cs),
(257,780,o),
(233,789,o),
(231,820,cs),
(226,859,o),
(271,889,o)
);
}
);
width = 585;
},
{
layerId = m01;
width = 600;
}
);
unicode = 730;
},
{
glyphname = tilde;
lastChange = "2026-03-12 19:03:50 +0000";
layers = (
{
anchors = (
{
name = _top;
pos = (305,500);
}
);
layerId = "442442E3-15B6-417A-B1AA-7726B8899A2D";
shapes = (
{
closed = 1;
nodes = (
(442,813,cs),
(437,811,o),
(433,804,o),
(433,798,cs),
(433,737,o),
(388,712,o),
(339,745,cs),
(283,781,o),
(274,785,o),
(244,785,cs),
(208,785,o),
(191,773,o),
(134,699,cs),
(78,627,o),
(77,631,o),
(149,631,cs),
(205,631,o),
(209,631,o),
(215,651,cs),
(224,689,o),
(247,704,o),
(276,688,cs),
(367,639,o),
(388,631,o),
(412,631,cs),
(463,631,o),
(495,668,o),
(519,757,c),
(534,810,l),
(492,813,l),
(469,814,o),
(446,815,o)
);
}
);
width = 602;
},
{
layerId = m01;
width = 600;
}
);
unicode = 732;
},
{
glyphname = cedilla;
lastChange = "2026-03-12 19:03:50 +0000";
layers = (
{
anchors = (
{
name = _bottom;
pos = (262,0);
}
);
layerId = "442442E3-15B6-417A-B1AA-7726B8899A2D";
shapes = (
{
closed = 1;
nodes = (
(174,-18,cs),
(172,-24,o),
(169,-47,o),
(169,-71,c),
(166,-114,l),
(225,-119,l),
(341,-127,o),
(331,-179,o),
(214,-179,cs),
(108,-179,o),
(110,-178,o),
(110,-249,c),
(110,-308,l),
(213,-308,l),
(286,-308,o),
(324,-305,o),
(341,-296,cs),
(449,-239,o),
(426,-67,o),
(310,-67,cs),
(286,-67,o),
(283,-64,o),
(280,-40,cs),
(278,-12,o),
(184,8,o)
);
}
);
width = 525;
},
{
layerId = m01;
width = 600;
}
);
unicode = 184;
},
{
glyphname = asciicircumflex;
lastChange = "2026-03-12 19:03:50 +0000";
layers = (
{
layerId = "442442E3-15B6-417A-B1AA-7726B8899A2D";
shapes = (
{
closed = 1;
nodes = (
(140,734,l),
(87,628,o),
(87,627,o),
(154,627,cs),
(209,627,o),
(227,638,o),
(242,680,cs),
(254,716,o),
(273,710,o),
(293,666,c),
(310,627,l),
(378,627,l),
(455,627,o),
(456,629,o),
(423,675,cs),
(409,693,o),
(386,735,o),
(371,767,c),
(344,825,l),
(264,825,l),
(184,825,l)
);
}
